<svg width="1120" height="144" viewBox="0 0 1120 144" version="1.1" xmlns="http://www.w3.org/2000/svg" xmlns:xlink="http://www.w3.org/1999/xlink">
<title>Frame</title>
<desc>Created using Figma</desc>
<g id="Canvas" transform="matrix(2 0 0 2 58 1946)">
<clipPath id="clip-0" clip-rule="evenodd">
<path d="M -29 -973L 531 -973L 531 -901L -29 -901L -29 -973Z" fill="#FFFFFF"/>
</clipPath>
<g id="Frame" clip-path="url(#clip-0)">
<path d="M -29 -973L 531 -973L 531 -901L -29 -901L -29 -973Z" fill="#FFFFFF"/>
<g id="Rectangle">
<use xlink:href="#path0_stroke" transform="translate(326 -954)"/>
</g>
<g id="Rectangle">
<use xlink:href="#path0_stroke" transform="translate(364 -954)"/>
</g>
<g id="Rectangle">
<use xlink:href="#path0_stroke" transform="translate(402 -954)"/>
</g>
<g id="Rectangle">
<use xlink:href="#path0_stroke" transform="translate(440 -954)"/>
</g>
<g id="2">
<use xlink:href="#path1_fill" transform="translate(327.319 -946.073)" fill="#6FCF97"/>
</g>
<g id="1">
<use xlink:href="#path2_fill" transform="translate(365.14 -946.71)" fill="#F2C94C"/>
</g>
<g id="4">
<use xlink:href="#path3_fill" transform="translate(403.14 -946.405)" fill="#EB5757"/>
</g>
<g id="3">
<use xlink:href="#path4_fill" transform="translate(441.14 -946.101)" fill="#9B51E0"/>
</g>
<g id="Rectangle">
<use xlink:href="#path0_stroke" transform="translate(478 -954)"/>
</g>
<g id="0">
<use xlink:href="#path5_fill" transform="translate(480.14 -945.668)" fill="#F2994A"/>
</g>
<g id="Group">
<g id="Rectangle">
<use xlink:href="#path6_fill" transform="translate(-22 -951)" fill="#F1F4F8"/>
</g>
<g id="sorted_order = np.argsort(fruit)">
<use xlink:href="#path7_fill" transform="translate(-15 -945.967)" fill="#2E383C"/>
</g>
</g>
</g>
</g>
<defs>
<path id="path0_stroke" d="M 0 0L 0 -0.5L -0.5 -0.5L -0.5 0L 0 0ZM 38 0L 38.5 0L 38.5 -0.5L 38 -0.5L 38 0ZM 38 38L 38 38.5L 38.5 38.5L 38.5 38L 38 38ZM 0 38L -0.5 38L -0.5 38.5L 0 38.5L 0 38ZM 0 0.5L 38 0.5L 38 -0.5L 0 -0.5L 0 0.5ZM 37.5 0L 37.5 38L 38.5 38L 38.5 0L 37.5 0ZM 38 37.5L 0 37.5L 0 38.5L 38 38.5L 38 37.5ZM 0.5 38L 0.5 0L -0.5 0L -0.5 38L 0.5 38Z"/>
<path id="path1_fill" d="M 21.9431 17L 13.5584 17L 13.5584 15.8311L 17.9881 10.9092C 18.6443 10.165 19.0955 9.56152 19.3416 9.09863C 19.5935 8.62988 19.7195 8.14648 19.7195 7.64844C 19.7195 6.98047 19.5174 6.43262 19.1131 6.00488C 18.7088 5.57715 18.1697 5.36328 17.4959 5.36328C 16.6873 5.36328 16.0574 5.59473 15.6062 6.05762C 15.1609 6.51465 14.9383 7.15332 14.9383 7.97363L 13.3123 7.97363C 13.3123 6.7959 13.6902 5.84375 14.4461 5.11719C 15.2078 4.39063 16.2244 4.02734 17.4959 4.02734C 18.6853 4.02734 19.6258 4.34082 20.3172 4.96777C 21.0086 5.58887 21.3543 6.41797 21.3543 7.45508C 21.3543 8.71484 20.5515 10.2148 18.9461 11.9551L 15.5183 15.6729L 21.9431 15.6729L 21.9431 17Z"/>
<path id="path2_fill" d="M 19.0235 17L 17.3888 17L 17.3888 6.16309L 14.1104 7.36719L 14.1104 5.89062L 18.7686 4.1416L 19.0235 4.1416L 19.0235 17Z"/>
<path id="path3_fill" d="M 20.544 12.7021L 22.3194 12.7021L 22.3194 14.0293L 20.544 14.0293L 20.544 17L 18.9093 17L 18.9093 14.0293L 13.0821 14.0293L 13.0821 13.0713L 18.8126 4.20312L 20.544 4.20312L 20.544 12.7021ZM 14.9278 12.7021L 18.9093 12.7021L 18.9093 6.42676L 18.7159 6.77832L 14.9278 12.7021Z"/>
<path id="path4_fill" d="M 16.044 9.81055L 17.2657 9.81055C 18.0333 9.79883 18.6368 9.59668 19.0763 9.2041C 19.5157 8.81152 19.7354 8.28125 19.7354 7.61328C 19.7354 6.11328 18.9884 5.36328 17.4942 5.36328C 16.7911 5.36328 16.2286 5.56543 15.8067 5.96973C 15.3907 6.36816 15.1827 6.89844 15.1827 7.56055L 13.5567 7.56055C 13.5567 6.54687 13.9259 5.70605 14.6641 5.03809C 15.4083 4.36426 16.3516 4.02734 17.4942 4.02734C 18.7012 4.02734 19.6475 4.34668 20.3331 4.98535C 21.0186 5.62402 21.3614 6.51172 21.3614 7.64844C 21.3614 8.20508 21.1798 8.74414 20.8165 9.26562C 20.4591 9.78711 19.9698 10.1768 19.3487 10.4346C 20.0518 10.6572 20.5938 11.0264 20.9747 11.542C 21.3614 12.0576 21.5548 12.6875 21.5548 13.4316C 21.5548 14.5801 21.1798 15.4912 20.4298 16.165C 19.6798 16.8389 18.7042 17.1758 17.503 17.1758C 16.3018 17.1758 15.3233 16.8506 14.5675 16.2002C 13.8175 15.5498 13.4425 14.6914 13.4425 13.625L 15.0772 13.625C 15.0772 14.2988 15.297 14.8379 15.7364 15.2422C 16.1759 15.6465 16.7647 15.8486 17.503 15.8486C 18.2882 15.8486 18.8888 15.6436 19.3048 15.2334C 19.7208 14.8232 19.9288 14.2344 19.9288 13.4668C 19.9288 12.7227 19.7003 12.1514 19.2432 11.7529C 18.7862 11.3545 18.127 11.1494 17.2657 11.1377L 16.044 11.1377L 16.044 9.81055Z"/>
<path id="path5_fill" d="M 21.7042 11.542C 21.7042 13.4463 21.379 14.8613 20.7286 15.7871C 20.0782 16.7129 19.0616 17.1758 17.6788 17.1758C 16.3136 17.1758 15.3028 16.7246 14.6466 15.8223C 13.9903 14.9141 13.6505 13.5605 13.627 11.7617L 13.627 9.59082C 13.627 7.70996 13.9522 6.3125 14.6026 5.39844C 15.253 4.48438 16.2725 4.02734 17.6612 4.02734C 19.0382 4.02734 20.0518 4.46973 20.7022 5.35449C 21.3526 6.2334 21.6866 7.59277 21.7042 9.43262L 21.7042 11.542ZM 20.0782 9.31836C 20.0782 7.94141 19.8848 6.93945 19.4981 6.3125C 19.1114 5.67969 18.4991 5.36328 17.6612 5.36328C 16.8292 5.36328 16.2227 5.67676 15.8419 6.30371C 15.461 6.93066 15.2647 7.89453 15.253 9.19531L 15.253 11.7969C 15.253 13.1797 15.4522 14.2021 15.8507 14.8643C 16.255 15.5205 16.8643 15.8486 17.6788 15.8486C 18.4815 15.8486 19.0763 15.5381 19.463 14.917C 19.8555 14.2959 20.0606 13.3174 20.0782 11.9814L 20.0782 9.31836Z"/>
<path id="path6_fill" d="M 0 0L 330 0L 330 31L 0 31L 0 0Z"/>
<path id="path7_fill" d="M 1.624 12.082C 2.016 12.3527 2.422 12.5673 2.842 12.726C 3.27133 12.8753 3.752 12.95 4.284 12.95C 4.82533 12.95 5.222 12.8753 5.474 12.726C 5.726 12.5673 5.852 12.3667 5.852 12.124C 5.852 11.8813 5.68867 11.6807 5.362 11.522C 5.03533 11.354 4.522 11.1767 3.822 10.99C 3.49533 10.906 3.178 10.8033 2.87 10.682C 2.562 10.5607 2.29133 10.4207 2.058 10.262C 1.82467 10.1033 1.638 9.92133 1.498 9.716C 1.358 9.51067 1.288 9.27733 1.288 9.016C 1.288 8.40933 1.54933 7.91467 2.072 7.532C 2.59467 7.14933 3.346 6.958 4.326 6.958C 4.886 6.958 5.41333 7.05133 5.908 7.238C 6.40267 7.42467 6.82733 7.63467 7.182 7.868L 6.44 8.862C 6.132 8.65667 5.80067 8.49333 5.446 8.372C 5.10067 8.24133 4.732 8.176 4.34 8.176C 3.808 8.176 3.43467 8.25067 3.22 8.4C 3.00533 8.54 2.898 8.71733 2.898 8.932C 2.898 9.05333 2.94467 9.16533 3.038 9.268C 3.14067 9.36133 3.276 9.45 3.444 9.534C 3.62133 9.60867 3.82667 9.68333 4.06 9.758C 4.29333 9.83267 4.55 9.90267 4.83 9.968C 5.23133 10.0707 5.59067 10.1873 5.908 10.318C 6.23467 10.4393 6.51 10.5793 6.734 10.738C 6.96733 10.8967 7.14467 11.0833 7.266 11.298C 7.39667 11.5127 7.462 11.76 7.462 12.04C 7.462 12.3387 7.392 12.6187 7.252 12.88C 7.112 13.132 6.90667 13.356 6.636 13.552C 6.36533 13.7387 6.02933 13.888 5.628 14C 5.22667 14.112 4.76467 14.168 4.242 14.168C 3.598 14.168 2.982 14.0653 2.394 13.86C 1.806 13.6547 1.29733 13.4027 0.868 13.104L 1.624 12.082ZM 9.13653 10.57C 9.13653 10.0007 9.22986 9.492 9.41653 9.044C 9.61253 8.596 9.8692 8.218 10.1865 7.91C 10.5039 7.602 10.8725 7.36867 11.2925 7.21C 11.7125 7.042 12.1465 6.958 12.5945 6.958C 13.0425 6.958 13.4765 7.042 13.8965 7.21C 14.3165 7.36867 14.6852 7.602 15.0025 7.91C 15.3199 8.218 15.5719 8.596 15.7585 9.044C 15.9545 9.492 16.0525 10.0007 16.0525 10.57C 16.0525 11.1393 15.9545 11.648 15.7585 12.096C 15.5719 12.544 15.3199 12.922 15.0025 13.23C 14.6852 13.538 14.3165 13.7713 13.8965 13.93C 13.4765 14.0887 13.0425 14.168 12.5945 14.168C 12.1465 14.168 11.7125 14.0887 11.2925 13.93C 10.8725 13.7713 10.5039 13.538 10.1865 13.23C 9.8692 12.922 9.61253 12.544 9.41653 12.096C 9.22986 11.648 9.13653 11.1393 9.13653 10.57ZM 10.8025 10.57C 10.8025 11.2607 10.9612 11.816 11.2785 12.236C 11.5959 12.6467 12.0345 12.852 12.5945 12.852C 13.1545 12.852 13.5932 12.6467 13.9105 12.236C 14.2279 11.816 14.3865 11.2607 14.3865 10.57C 14.3865 9.87 14.2279 9.31467 13.9105 8.904C 13.5932 8.484 13.1545 8.274 12.5945 8.274C 12.0345 8.274 11.5959 8.484 11.2785 8.904C 10.9612 9.31467 10.8025 9.87 10.8025 10.57ZM 18.6091 7.126L 19.9391 7.126L 20.0791 8.68L 20.1211 8.68C 20.4757 8.12 20.9004 7.69533 21.3951 7.406C 21.8991 7.10733 22.4497 6.958 23.0471 6.958C 23.3271 6.958 23.5651 6.98133 23.7611 7.028C 23.9664 7.06533 24.1717 7.13533 24.3771 7.238L 24.0411 8.596C 23.8171 8.52133 23.6164 8.47 23.4391 8.442C 23.2711 8.40467 23.0564 8.386 22.7951 8.386C 22.3191 8.386 21.8617 8.52133 21.4231 8.792C 20.9844 9.06267 20.5877 9.534 20.2331 10.206L 20.2331 14L 18.6091 14L 18.6091 7.126ZM 27.8436 8.4L 26.0096 8.4L 26.0096 7.196L 27.9136 7.126L 28.1236 5.25L 29.4536 5.25L 29.4536 7.126L 32.5896 7.126L 32.5896 8.4L 29.4536 8.4L 29.4536 11.228C 29.4536 11.7973 29.5703 12.2173 29.8036 12.488C 30.0369 12.7493 30.4476 12.88 31.0356 12.88C 31.3343 12.88 31.6049 12.8567 31.8476 12.81C 32.0903 12.754 32.3236 12.684 32.5476 12.6L 32.8556 13.776C 32.5476 13.8787 32.2069 13.9673 31.8336 14.042C 31.4603 14.126 31.0636 14.168 30.6436 14.168C 30.1209 14.168 29.6823 14.098 29.3276 13.958C 28.9729 13.818 28.6836 13.622 28.4596 13.37C 28.2449 13.1087 28.0863 12.796 27.9836 12.432C 27.8903 12.068 27.8436 11.6667 27.8436 11.228L 27.8436 8.4ZM 34.4461 10.57C 34.4461 10.01 34.5441 9.506 34.7401 9.058C 34.9455 8.61 35.2115 8.232 35.5381 7.924C 35.8648 7.60667 36.2381 7.36867 36.6581 7.21C 37.0875 7.042 37.5261 6.958 37.9741 6.958C 38.4875 6.958 38.9401 7.042 39.3321 7.21C 39.7335 7.36867 40.0695 7.59267 40.3401 7.882C 40.6108 8.162 40.8161 8.50267 40.9561 8.904C 41.0961 9.30533 41.1661 9.744 41.1661 10.22C 41.1661 10.3787 41.1568 10.528 41.1381 10.668C 41.1288 10.808 41.1148 10.92 41.0961 11.004L 36.0981 11.004C 36.1541 11.62 36.3968 12.096 36.8261 12.432C 37.2555 12.7587 37.7828 12.922 38.4081 12.922C 38.7628 12.922 39.0941 12.8753 39.4021 12.782C 39.7101 12.6793 40.0228 12.5393 40.3401 12.362L 40.8861 13.37C 40.5128 13.6033 40.0975 13.7947 39.6401 13.944C 39.1828 14.0933 38.7021 14.168 38.1981 14.168C 37.6755 14.168 37.1855 14.0887 36.7281 13.93C 36.2708 13.762 35.8741 13.524 35.5381 13.216C 35.2021 12.908 34.9361 12.5347 34.7401 12.096C 34.5441 11.648 34.4461 11.1393 34.4461 10.57ZM 39.6821 9.912C 39.6821 9.38 39.5421 8.96467 39.2621 8.666C 38.9821 8.358 38.5668 8.204 38.0161 8.204C 37.5495 8.204 37.1341 8.34867 36.7701 8.638C 36.4061 8.92733 36.1775 9.352 36.0841 9.912L 39.6821 9.912ZM 42.7147 10.57C 42.7147 10.01 42.7987 9.506 42.9667 9.058C 43.1347 8.61 43.3587 8.232 43.6387 7.924C 43.928 7.616 44.2547 7.378 44.6187 7.21C 44.9827 7.042 45.3607 6.958 45.7527 6.958C 46.1633 6.958 46.5133 7.03267 46.8027 7.182C 47.1013 7.322 47.3907 7.518 47.6707 7.77L 47.6007 6.608L 47.6007 4.116L 49.2247 4.116L 49.2247 14L 47.8947 14L 47.7687 13.202L 47.7267 13.202C 47.456 13.4727 47.1387 13.7013 46.7747 13.888C 46.42 14.0747 46.0467 14.168 45.6547 14.168C 45.216 14.168 44.8147 14.0887 44.4507 13.93C 44.0867 13.762 43.774 13.524 43.5127 13.216C 43.2607 12.908 43.0647 12.5347 42.9247 12.096C 42.7847 11.648 42.7147 11.1393 42.7147 10.57ZM 44.3807 10.556C 44.3807 11.3027 44.5253 11.872 44.8147 12.264C 45.104 12.6467 45.5147 12.838 46.0467 12.838C 46.616 12.838 47.134 12.5627 47.6007 12.012L 47.6007 8.918C 47.358 8.68467 47.1153 8.52133 46.8727 8.428C 46.63 8.33467 46.3827 8.288 46.1307 8.288C 45.888 8.288 45.6593 8.33933 45.4447 8.442C 45.2393 8.54467 45.0573 8.694 44.8987 8.89C 44.74 9.07667 44.614 9.31 44.5207 9.59C 44.4273 9.87 44.3807 10.192 44.3807 10.556ZM 57.9272 14.868L 57.9272 16.128L 51.2072 16.128L 51.2072 14.868L 57.9272 14.868ZM 59.5037 10.57C 59.5037 10.0007 59.5971 9.492 59.7837 9.044C 59.9797 8.596 60.2364 8.218 60.5537 7.91C 60.8711 7.602 61.2397 7.36867 61.6597 7.21C 62.0797 7.042 62.5137 6.958 62.9617 6.958C 63.4097 6.958 63.8437 7.042 64.2637 7.21C 64.6837 7.36867 65.0524 7.602 65.3697 7.91C 65.6871 8.218 65.9391 8.596 66.1257 9.044C 66.3217 9.492 66.4197 10.0007 66.4197 10.57C 66.4197 11.1393 66.3217 11.648 66.1257 12.096C 65.9391 12.544 65.6871 12.922 65.3697 13.23C 65.0524 13.538 64.6837 13.7713 64.2637 13.93C 63.8437 14.0887 63.4097 14.168 62.9617 14.168C 62.5137 14.168 62.0797 14.0887 61.6597 13.93C 61.2397 13.7713 60.8711 13.538 60.5537 13.23C 60.2364 12.922 59.9797 12.544 59.7837 12.096C 59.5971 11.648 59.5037 11.1393 59.5037 10.57ZM 61.1697 10.57C 61.1697 11.2607 61.3284 11.816 61.6457 12.236C 61.9631 12.6467 62.4017 12.852 62.9617 12.852C 63.5217 12.852 63.9604 12.6467 64.2777 12.236C 64.5951 11.816 64.7537 11.2607 64.7537 10.57C 64.7537 9.87 64.5951 9.31467 64.2777 8.904C 63.9604 8.484 63.5217 8.274 62.9617 8.274C 62.4017 8.274 61.9631 8.484 61.6457 8.904C 61.3284 9.31467 61.1697 9.87 61.1697 10.57ZM 68.9762 7.126L 70.3062 7.126L 70.4462 8.68L 70.4883 8.68C 70.8429 8.12 71.2676 7.69533 71.7622 7.406C 72.2663 7.10733 72.8169 6.958 73.4142 6.958C 73.6943 6.958 73.9322 6.98133 74.1282 7.028C 74.3336 7.06533 74.5389 7.13533 74.7442 7.238L 74.4083 8.596C 74.1842 8.52133 73.9836 8.47 73.8062 8.442C 73.6382 8.40467 73.4236 8.386 73.1622 8.386C 72.6863 8.386 72.2289 8.52133 71.7903 8.792C 71.3516 9.06267 70.9549 9.534 70.6003 10.206L 70.6003 14L 68.9762 14L 68.9762 7.126ZM 76.2928 10.57C 76.2928 10.01 76.3768 9.506 76.5448 9.058C 76.7128 8.61 76.9368 8.232 77.2168 7.924C 77.5061 7.616 77.8328 7.378 78.1968 7.21C 78.5608 7.042 78.9388 6.958 79.3308 6.958C 79.7414 6.958 80.0914 7.03267 80.3808 7.182C 80.6794 7.322 80.9688 7.518 81.2488 7.77L 81.1788 6.608L 81.1788 4.116L 82.8028 4.116L 82.8028 14L 81.4728 14L 81.3468 13.202L 81.3048 13.202C 81.0341 13.4727 80.7168 13.7013 80.3528 13.888C 79.9981 14.0747 79.6248 14.168 79.2328 14.168C 78.7941 14.168 78.3928 14.0887 78.0288 13.93C 77.6648 13.762 77.3521 13.524 77.0908 13.216C 76.8388 12.908 76.6428 12.5347 76.5028 12.096C 76.3628 11.648 76.2928 11.1393 76.2928 10.57ZM 77.9588 10.556C 77.9588 11.3027 78.1034 11.872 78.3928 12.264C 78.6821 12.6467 79.0928 12.838 79.6248 12.838C 80.1941 12.838 80.7121 12.5627 81.1788 12.012L 81.1788 8.918C 80.9361 8.68467 80.6934 8.52133 80.4508 8.428C 80.2081 8.33467 79.9608 8.288 79.7088 8.288C 79.4661 8.288 79.2374 8.33933 79.0228 8.442C 78.8174 8.54467 78.6354 8.694 78.4768 8.89C 78.3181 9.07667 78.1921 9.31 78.0988 9.59C 78.0054 9.87 77.9588 10.192 77.9588 10.556ZM 84.8133 10.57C 84.8133 10.01 84.9113 9.506 85.1073 9.058C 85.3126 8.61 85.5786 8.232 85.9053 7.924C 86.232 7.60667 86.6053 7.36867 87.0253 7.21C 87.4546 7.042 87.8933 6.958 88.3413 6.958C 88.8546 6.958 89.3073 7.042 89.6993 7.21C 90.1006 7.36867 90.4366 7.59267 90.7073 7.882C 90.978 8.162 91.1833 8.50267 91.3233 8.904C 91.4633 9.30533 91.5333 9.744 91.5333 10.22C 91.5333 10.3787 91.524 10.528 91.5053 10.668C 91.496 10.808 91.482 10.92 91.4633 11.004L 86.4653 11.004C 86.5213 11.62 86.764 12.096 87.1933 12.432C 87.6226 12.7587 88.15 12.922 88.7753 12.922C 89.13 12.922 89.4613 12.8753 89.7693 12.782C 90.0773 12.6793 90.39 12.5393 90.7073 12.362L 91.2533 13.37C 90.88 13.6033 90.4646 13.7947 90.0073 13.944C 89.55 14.0933 89.0693 14.168 88.5653 14.168C 88.0426 14.168 87.5526 14.0887 87.0953 13.93C 86.638 13.762 86.2413 13.524 85.9053 13.216C 85.5693 12.908 85.3033 12.5347 85.1073 12.096C 84.9113 11.648 84.8133 11.1393 84.8133 10.57ZM 90.0493 9.912C 90.0493 9.38 89.9093 8.96467 89.6293 8.666C 89.3493 8.358 88.934 8.204 88.3833 8.204C 87.9166 8.204 87.5013 8.34867 87.1373 8.638C 86.7733 8.92733 86.5446 9.352 86.4513 9.912L 90.0493 9.912ZM 94.1598 7.126L 95.4898 7.126L 95.6298 8.68L 95.6718 8.68C 96.0265 8.12 96.4512 7.69533 96.9458 7.406C 97.4498 7.10733 98.0005 6.958 98.5978 6.958C 98.8778 6.958 99.1158 6.98133 99.3118 7.028C 99.5172 7.06533 99.7225 7.13533 99.9278 7.238L 99.5918 8.596C 99.3678 8.52133 99.1672 8.47 98.9898 8.442C 98.8218 8.40467 98.6072 8.386 98.3458 8.386C 97.8698 8.386 97.4125 8.52133 96.9738 8.792C 96.5352 9.06267 96.1385 9.534 95.7838 10.206L 95.7838 14L 94.1598 14L 94.1598 7.126ZM 110.221 7.224L 116.437 7.224L 116.437 8.4L 110.221 8.4L 110.221 7.224ZM 110.221 10.346L 116.437 10.346L 116.437 11.522L 110.221 11.522L 110.221 10.346ZM 127.066 7.126L 128.396 7.126L 128.522 8.162L 128.578 8.162C 128.905 7.83533 129.264 7.55533 129.656 7.322C 130.057 7.07933 130.524 6.958 131.056 6.958C 131.849 6.958 132.433 7.20067 132.806 7.686C 133.179 8.162 133.366 8.848 133.366 9.744L 133.366 14L 131.742 14L 131.742 9.954C 131.742 9.394 131.644 8.988 131.448 8.736C 131.261 8.47467 130.93 8.344 130.454 8.344C 130.118 8.344 129.819 8.42333 129.558 8.582C 129.297 8.74067 129.007 8.98333 128.69 9.31L 128.69 14L 127.066 14L 127.066 7.126ZM 137.084 14.56L 137.084 16.716L 135.461 16.716L 135.461 7.126L 136.791 7.126L 136.917 7.91L 136.958 7.91C 137.257 7.63933 137.598 7.41533 137.98 7.238C 138.372 7.05133 138.764 6.958 139.156 6.958C 139.604 6.958 140.001 7.042 140.346 7.21C 140.701 7.36867 140.995 7.602 141.228 7.91C 141.471 8.218 141.653 8.58667 141.774 9.016C 141.905 9.44533 141.97 9.926 141.97 10.458C 141.97 11.046 141.887 11.5733 141.718 12.04C 141.551 12.4973 141.322 12.8847 141.032 13.202C 140.753 13.51 140.426 13.748 140.052 13.916C 139.689 14.084 139.31 14.168 138.918 14.168C 138.601 14.168 138.274 14.098 137.939 13.958C 137.612 13.818 137.309 13.6173 137.029 13.356L 137.084 14.56ZM 137.084 12.208C 137.337 12.4413 137.593 12.6047 137.854 12.698C 138.125 12.7913 138.368 12.838 138.583 12.838C 139.077 12.838 139.488 12.642 139.815 12.25C 140.141 11.8487 140.305 11.256 140.305 10.472C 140.305 9.78133 140.178 9.24467 139.926 8.862C 139.674 8.47933 139.269 8.288 138.709 8.288C 138.447 8.288 138.181 8.35333 137.91 8.484C 137.64 8.61467 137.364 8.82467 137.084 9.114L 137.084 12.208ZM 145.521 12.754C 145.521 12.3433 145.652 12.0073 145.913 11.746C 146.174 11.4753 146.506 11.34 146.907 11.34C 147.308 11.34 147.64 11.4753 147.901 11.746C 148.162 12.0073 148.293 12.3433 148.293 12.754C 148.293 13.1647 148.162 13.5053 147.901 13.776C 147.64 14.0373 147.308 14.168 146.907 14.168C 146.506 14.168 146.174 14.0373 145.913 13.776C 145.652 13.5053 145.521 13.1647 145.521 12.754ZM 152.096 12.152C 152.096 11.7693 152.184 11.4333 152.362 11.144C 152.539 10.8453 152.819 10.5933 153.202 10.388C 153.584 10.1827 154.074 10.0147 154.672 9.884C 155.269 9.75333 155.992 9.66 156.842 9.604C 156.814 9.212 156.674 8.89 156.422 8.638C 156.17 8.386 155.764 8.26 155.204 8.26C 154.812 8.26 154.424 8.33467 154.042 8.484C 153.668 8.624 153.304 8.792 152.95 8.988L 152.362 7.91C 152.782 7.66733 153.262 7.448 153.804 7.252C 154.345 7.056 154.91 6.958 155.498 6.958C 156.459 6.958 157.192 7.21467 157.696 7.728C 158.2 8.232 158.452 8.96467 158.452 9.926L 158.452 14L 157.136 14L 157.01 13.146L 156.968 13.146C 156.604 13.426 156.198 13.6687 155.75 13.874C 155.311 14.07 154.858 14.168 154.392 14.168C 154.056 14.168 153.748 14.1167 153.468 14.014C 153.188 13.9207 152.945 13.7853 152.74 13.608C 152.534 13.4307 152.376 13.2207 152.264 12.978C 152.152 12.726 152.096 12.4507 152.096 12.152ZM 153.65 12.026C 153.65 12.334 153.766 12.558 154 12.698C 154.242 12.838 154.536 12.908 154.882 12.908C 155.227 12.908 155.558 12.8333 155.876 12.684C 156.202 12.5253 156.524 12.32 156.842 12.068L 156.842 10.612C 156.226 10.6587 155.712 10.724 155.302 10.808C 154.891 10.8827 154.564 10.9807 154.322 11.102C 154.079 11.2233 153.906 11.3633 153.804 11.522C 153.701 11.6713 153.65 11.8393 153.65 12.026ZM 161.316 7.126L 162.646 7.126L 162.786 8.68L 162.828 8.68C 163.183 8.12 163.607 7.69533 164.102 7.406C 164.606 7.10733 165.157 6.958 165.754 6.958C 166.034 6.958 166.272 6.98133 166.468 7.028C 166.673 7.06533 166.879 7.13533 167.084 7.238L 166.748 8.596C 166.524 8.52133 166.323 8.47 166.146 8.442C 165.978 8.40467 165.763 8.386 165.502 8.386C 165.026 8.386 164.569 8.52133 164.13 8.792C 163.691 9.06267 163.295 9.534 162.94 10.206L 162.94 14L 161.316 14L 161.316 7.126ZM 170.103 14.994C 170.103 15.302 170.271 15.5447 170.607 15.722C 170.952 15.8993 171.447 15.988 172.091 15.988C 172.427 15.988 172.73 15.9553 173.001 15.89C 173.271 15.834 173.505 15.7547 173.701 15.652C 173.897 15.5493 174.046 15.428 174.149 15.288C 174.251 15.1573 174.303 15.0173 174.303 14.868C 174.303 14.5973 174.186 14.4153 173.953 14.322C 173.719 14.238 173.374 14.196 172.917 14.196L 171.825 14.196C 171.601 14.196 171.4 14.1867 171.223 14.168C 171.055 14.1587 170.905 14.1307 170.775 14.084C 170.532 14.2333 170.359 14.3827 170.257 14.532C 170.154 14.6813 170.103 14.8353 170.103 14.994ZM 168.759 15.204C 168.759 14.9333 168.852 14.672 169.039 14.42C 169.225 14.168 169.496 13.9487 169.851 13.762L 169.851 13.706C 169.664 13.6033 169.501 13.4587 169.361 13.272C 169.221 13.0853 169.151 12.8473 169.151 12.558C 169.151 12.3247 169.225 12.096 169.375 11.872C 169.524 11.6387 169.725 11.4333 169.977 11.256L 169.977 11.2C 169.734 11.032 169.524 10.7987 169.347 10.5C 169.179 10.2013 169.095 9.84667 169.095 9.436C 169.095 9.044 169.169 8.694 169.319 8.386C 169.477 8.078 169.683 7.82133 169.935 7.616C 170.196 7.40133 170.495 7.238 170.831 7.126C 171.176 7.014 171.54 6.958 171.923 6.958C 172.333 6.958 172.693 7.014 173.001 7.126L 175.815 7.126L 175.815 8.316L 174.205 8.316C 174.326 8.456 174.433 8.62867 174.527 8.834C 174.62 9.03 174.667 9.24933 174.667 9.492C 174.667 9.87467 174.597 10.2107 174.457 10.5C 174.317 10.7893 174.121 11.032 173.869 11.228C 173.626 11.424 173.337 11.5733 173.001 11.676C 172.665 11.7693 172.305 11.816 171.923 11.816C 171.577 11.816 171.227 11.7553 170.873 11.634C 170.593 11.8113 170.453 12.0213 170.453 12.264C 170.453 12.7027 170.887 12.922 171.755 12.922L 173.155 12.922C 174.051 12.922 174.723 13.0527 175.171 13.314C 175.628 13.5753 175.857 14.0047 175.857 14.602C 175.857 14.938 175.763 15.2553 175.577 15.554C 175.39 15.8527 175.124 16.1093 174.779 16.324C 174.443 16.548 174.027 16.7207 173.533 16.842C 173.047 16.9727 172.501 17.038 171.895 17.038C 171.419 17.038 170.989 17.0007 170.607 16.926C 170.224 16.8513 169.893 16.7347 169.613 16.576C 169.342 16.4267 169.132 16.2353 168.983 16.002C 168.833 15.778 168.759 15.512 168.759 15.204ZM 171.923 10.808C 172.277 10.808 172.585 10.6913 172.847 10.458C 173.108 10.2153 173.239 9.87467 173.239 9.436C 173.239 9.016 173.108 8.68467 172.847 8.442C 172.585 8.19 172.277 8.064 171.923 8.064C 171.568 8.064 171.26 8.19 170.999 8.442C 170.747 8.68467 170.621 9.016 170.621 9.436C 170.621 9.87467 170.747 10.2153 170.999 10.458C 171.26 10.6913 171.568 10.808 171.923 10.808ZM 177.909 12.082C 178.301 12.3527 178.707 12.5673 179.127 12.726C 179.556 12.8753 180.037 12.95 180.569 12.95C 181.11 12.95 181.507 12.8753 181.759 12.726C 182.011 12.5673 182.137 12.3667 182.137 12.124C 182.137 11.8813 181.974 11.6807 181.647 11.522C 181.32 11.354 180.807 11.1767 180.107 10.99C 179.78 10.906 179.463 10.8033 179.155 10.682C 178.847 10.5607 178.576 10.4207 178.343 10.262C 178.11 10.1033 177.923 9.92133 177.783 9.716C 177.643 9.51067 177.573 9.27733 177.573 9.016C 177.573 8.40933 177.834 7.91467 178.357 7.532C 178.88 7.14933 179.631 6.958 180.611 6.958C 181.171 6.958 181.698 7.05133 182.193 7.238C 182.688 7.42467 183.112 7.63467 183.467 7.868L 182.725 8.862C 182.417 8.65667 182.086 8.49333 181.731 8.372C 181.386 8.24133 181.017 8.176 180.625 8.176C 180.093 8.176 179.72 8.25067 179.505 8.4C 179.29 8.54 179.183 8.71733 179.183 8.932C 179.183 9.05333 179.23 9.16533 179.323 9.268C 179.426 9.36133 179.561 9.45 179.729 9.534C 179.906 9.60867 180.112 9.68333 180.345 9.758C 180.578 9.83267 180.835 9.90267 181.115 9.968C 181.516 10.0707 181.876 10.1873 182.193 10.318C 182.52 10.4393 182.795 10.5793 183.019 10.738C 183.252 10.8967 183.43 11.0833 183.551 11.298C 183.682 11.5127 183.747 11.76 183.747 12.04C 183.747 12.3387 183.677 12.6187 183.537 12.88C 183.397 13.132 183.192 13.356 182.921 13.552C 182.65 13.7387 182.314 13.888 181.913 14C 181.512 14.112 181.05 14.168 180.527 14.168C 179.883 14.168 179.267 14.0653 178.679 13.86C 178.091 13.6547 177.582 13.4027 177.153 13.104L 177.909 12.082ZM 185.422 10.57C 185.422 10.0007 185.515 9.492 185.702 9.044C 185.898 8.596 186.154 8.218 186.472 7.91C 186.789 7.602 187.158 7.36867 187.578 7.21C 187.998 7.042 188.432 6.958 188.88 6.958C 189.328 6.958 189.762 7.042 190.182 7.21C 190.602 7.36867 190.97 7.602 191.288 7.91C 191.605 8.218 191.857 8.596 192.044 9.044C 192.24 9.492 192.338 10.0007 192.338 10.57C 192.338 11.1393 192.24 11.648 192.044 12.096C 191.857 12.544 191.605 12.922 191.288 13.23C 190.97 13.538 190.602 13.7713 190.182 13.93C 189.762 14.0887 189.328 14.168 188.88 14.168C 188.432 14.168 187.998 14.0887 187.578 13.93C 187.158 13.7713 186.789 13.538 186.472 13.23C 186.154 12.922 185.898 12.544 185.702 12.096C 185.515 11.648 185.422 11.1393 185.422 10.57ZM 187.088 10.57C 187.088 11.2607 187.246 11.816 187.564 12.236C 187.881 12.6467 188.32 12.852 188.88 12.852C 189.44 12.852 189.878 12.6467 190.196 12.236C 190.513 11.816 190.672 11.2607 190.672 10.57C 190.672 9.87 190.513 9.31467 190.196 8.904C 189.878 8.484 189.44 8.274 188.88 8.274C 188.32 8.274 187.881 8.484 187.564 8.904C 187.246 9.31467 187.088 9.87 187.088 10.57ZM 194.894 7.126L 196.224 7.126L 196.364 8.68L 196.406 8.68C 196.761 8.12 197.186 7.69533 197.68 7.406C 198.184 7.10733 198.735 6.958 199.332 6.958C 199.612 6.958 199.85 6.98133 200.046 7.028C 200.252 7.06533 200.457 7.13533 200.662 7.238L 200.326 8.596C 200.102 8.52133 199.902 8.47 199.724 8.442C 199.556 8.40467 199.342 8.386 199.08 8.386C 198.604 8.386 198.147 8.52133 197.708 8.792C 197.27 9.06267 196.873 9.534 196.518 10.206L 196.518 14L 194.894 14L 194.894 7.126ZM 204.129 8.4L 202.295 8.4L 202.295 7.196L 204.199 7.126L 204.409 5.25L 205.739 5.25L 205.739 7.126L 208.875 7.126L 208.875 8.4L 205.739 8.4L 205.739 11.228C 205.739 11.7973 205.855 12.2173 206.089 12.488C 206.322 12.7493 206.733 12.88 207.321 12.88C 207.619 12.88 207.89 12.8567 208.133 12.81C 208.375 12.754 208.609 12.684 208.833 12.6L 209.141 13.776C 208.833 13.8787 208.492 13.9673 208.119 14.042C 207.745 14.126 207.349 14.168 206.929 14.168C 206.406 14.168 205.967 14.098 205.613 13.958C 205.258 13.818 204.969 13.622 204.745 13.37C 204.53 13.1087 204.371 12.796 204.269 12.432C 204.175 12.068 204.129 11.6667 204.129 11.228L 204.129 8.4ZM 215.631 16.478C 214.689 15.694 213.942 14.77 213.391 13.706C 212.85 12.642 212.579 11.4427 212.579 10.108C 212.579 8.77333 212.85 7.574 213.391 6.51C 213.942 5.446 214.689 4.522 215.631 3.738L 216.527 4.48C 215.641 5.28267 214.992 6.13667 214.581 7.042C 214.171 7.94733 213.965 8.96933 213.965 10.108C 213.965 11.2467 214.171 12.2687 214.581 13.174C 214.992 14.0793 215.641 14.9333 216.527 15.736L 215.631 16.478ZM 226.07 5.516C 225.818 5.41333 225.57 5.33867 225.328 5.292C 225.094 5.24533 224.838 5.222 224.558 5.222C 224.026 5.222 223.638 5.35267 223.396 5.614C 223.162 5.866 223.046 6.23467 223.046 6.72L 223.046 7.126L 225.664 7.126L 225.664 8.4L 223.046 8.4L 223.046 14L 221.45 14L 221.45 8.4L 219.546 8.4L 219.546 7.196L 221.45 7.126L 221.45 6.748C 221.45 6.34667 221.506 5.97333 221.618 5.628C 221.73 5.28267 221.902 4.98867 222.136 4.746C 222.378 4.494 222.682 4.298 223.046 4.158C 223.419 4.018 223.858 3.948 224.362 3.948C 224.735 3.948 225.09 3.98067 225.426 4.046C 225.771 4.11133 226.098 4.20467 226.406 4.326L 226.07 5.516ZM 228.472 7.126L 229.802 7.126L 229.942 8.68L 229.984 8.68C 230.339 8.12 230.764 7.69533 231.258 7.406C 231.762 7.10733 232.313 6.958 232.91 6.958C 233.19 6.958 233.428 6.98133 233.624 7.028C 233.83 7.06533 234.035 7.13533 234.24 7.238L 233.904 8.596C 233.68 8.52133 233.48 8.47 233.302 8.442C 233.134 8.40467 232.92 8.386 232.658 8.386C 232.182 8.386 231.725 8.52133 231.286 8.792C 230.848 9.06267 230.451 9.534 230.096 10.206L 230.096 14L 228.472 14L 228.472 7.126ZM 242.257 14L 240.941 14L 240.815 12.908L 240.759 12.908C 240.432 13.2907 240.073 13.5987 239.681 13.832C 239.289 14.056 238.836 14.168 238.323 14.168C 237.52 14.168 236.937 13.93 236.573 13.454C 236.209 12.9687 236.027 12.278 236.027 11.382L 236.027 7.126L 237.637 7.126L 237.637 11.172C 237.637 11.732 237.73 12.1427 237.917 12.404C 238.113 12.656 238.449 12.782 238.925 12.782C 239.252 12.782 239.541 12.7073 239.793 12.558C 240.054 12.4087 240.339 12.1427 240.647 11.76L 240.647 7.126L 242.257 7.126L 242.257 14ZM 244.617 7.126L 249.209 7.126L 249.209 14L 247.599 14L 247.599 8.4L 244.617 8.4L 244.617 7.126ZM 248.285 5.922C 247.959 5.922 247.683 5.824 247.459 5.628C 247.245 5.432 247.137 5.17067 247.137 4.844C 247.137 4.51733 247.245 4.256 247.459 4.06C 247.683 3.85467 247.959 3.752 248.285 3.752C 248.621 3.752 248.897 3.85467 249.111 4.06C 249.326 4.256 249.433 4.51733 249.433 4.844C 249.433 5.17067 249.326 5.432 249.111 5.628C 248.897 5.824 248.621 5.922 248.285 5.922ZM 254.496 8.4L 252.662 8.4L 252.662 7.196L 254.566 7.126L 254.776 5.25L 256.106 5.25L 256.106 7.126L 259.242 7.126L 259.242 8.4L 256.106 8.4L 256.106 11.228C 256.106 11.7973 256.223 12.2173 256.456 12.488C 256.689 12.7493 257.1 12.88 257.688 12.88C 257.987 12.88 258.257 12.8567 258.5 12.81C 258.743 12.754 258.976 12.684 259.2 12.6L 259.508 13.776C 259.2 13.8787 258.859 13.9673 258.486 14.042C 258.113 14.126 257.716 14.168 257.296 14.168C 256.773 14.168 256.335 14.098 255.98 13.958C 255.625 13.818 255.336 13.622 255.112 13.37C 254.897 13.1087 254.739 12.796 254.636 12.432C 254.543 12.068 254.496 11.6667 254.496 11.228L 254.496 8.4ZM 261.966 15.736C 262.853 14.9333 263.502 14.0793 263.912 13.174C 264.323 12.2687 264.528 11.2467 264.528 10.108C 264.528 8.96933 264.323 7.94733 263.912 7.042C 263.502 6.13667 262.853 5.28267 261.966 4.48L 262.862 3.738C 263.805 4.522 264.547 5.446 265.088 6.51C 265.639 7.574 265.914 8.77333 265.914 10.108C 265.914 11.4427 265.639 12.642 265.088 13.706C 264.547 14.77 263.805 15.694 262.862 16.478L 261.966 15.736Z"/>
</defs>
</svg>
