<svg width="1120" height="444" viewBox="0 0 1120 444" version="1.1" xmlns="http://www.w3.org/2000/svg" xmlns:xlink="http://www.w3.org/1999/xlink">
<title>Frame</title>
<desc>Created using Figma</desc>
<g id="Canvas" transform="matrix(2 0 0 2 58 1736)">
<clipPath id="clip-0" clip-rule="evenodd">
<path d="M -29 -868L 531 -868L 531 -646L -29 -646L -29 -868Z" fill="#FFFFFF"/>
</clipPath>
<g id="Frame" clip-path="url(#clip-0)">
<path d="M -29 -868L 531 -868L 531 -646L -29 -646L -29 -868Z" fill="#FFFFFF"/>
<g id="Rectangle">
<use xlink:href="#path0_stroke" transform="translate(371 -852)"/>
</g>
<g id="Rectangle">
<use xlink:href="#path0_stroke" transform="translate(371 -814.305)"/>
</g>
<g id="Rectangle">
<use xlink:href="#path0_stroke" transform="translate(371 -776.61)"/>
</g>
<g id="Rectangle">
<use xlink:href="#path0_stroke" transform="translate(371 -738.915)"/>
</g>
<g id="apple">
<use xlink:href="#path1_fill" transform="translate(374.472 -844)" fill="#6FCF97"/>
</g>
<g id="banana">
<use xlink:href="#path2_fill" transform="translate(374 -807)" fill="#F2C94C"/>
</g>
<g id="cherry">
<use xlink:href="#path3_fill" transform="translate(374 -769)" fill="#EB5757"/>
</g>
<g id="grape">
<use xlink:href="#path4_fill" transform="translate(374 -731)" fill="#9B51E0"/>
</g>
<g id="Rectangle">
<use xlink:href="#path0_stroke" transform="translate(371 -700.349)"/>
</g>
<g id="orange">
<use xlink:href="#path5_fill" transform="translate(374 -692)" fill="#F2994A"/>
</g>
<g id="Group">
<g id="Rectangle">
<use xlink:href="#path6_fill" transform="translate(-22 -774)" fill="#F1F4F8"/>
</g>
<g id="sorted_fruit = fruit[sorted_order]">
<use xlink:href="#path7_fill" transform="translate(-15 -768.967)" fill="#2E383C"/>
</g>
</g>
</g>
</g>
<defs>
<path id="path0_stroke" d="M 0 0L 0 -0.5L -0.5 -0.5L -0.5 0L 0 0ZM 100 0L 100.5 0L 100.5 -0.5L 100 -0.5L 100 0ZM 100 38.3486L 100 38.8486L 100.5 38.8486L 100.5 38.3486L 100 38.3486ZM 0 38.3486L -0.5 38.3486L -0.5 38.8486L 0 38.8486L 0 38.3486ZM 0 0.5L 100 0.5L 100 -0.5L 0 -0.5L 0 0.5ZM 99.5 0L 99.5 38.3486L 100.5 38.3486L 100.5 0L 99.5 0ZM 100 37.8486L 0 37.8486L 0 38.8486L 100 38.8486L 100 37.8486ZM 0.5 38.3486L 0.5 0L -0.5 0L -0.5 38.3486L 0.5 38.3486Z"/>
<path id="path1_fill" d="M 31.3183 17C 31.2245 16.8125 31.1483 16.4785 31.0897 15.998C 30.3339 16.7832 29.4315 17.1758 28.3827 17.1758C 27.4452 17.1758 26.6747 16.9121 26.0712 16.3848C 25.4735 15.8516 25.1747 15.1777 25.1747 14.3633C 25.1747 13.373 25.5497 12.6055 26.2997 12.0605C 27.0556 11.5098 28.1161 11.2344 29.4813 11.2344L 31.0634 11.2344L 31.0634 10.4873C 31.0634 9.91895 30.8934 9.46777 30.5536 9.13379C 30.2138 8.79395 29.7128 8.62402 29.0507 8.62402C 28.4706 8.62402 27.9843 8.77051 27.5917 9.06348C 27.1991 9.35645 27.0028 9.71094 27.0028 10.127L 25.3681 10.127C 25.3681 9.65234 25.535 9.19531 25.869 8.75586C 26.2089 8.31055 26.6659 7.95898 27.2401 7.70117C 27.8202 7.44336 28.4559 7.31445 29.1474 7.31445C 30.2431 7.31445 31.1015 7.58984 31.7225 8.14062C 32.3436 8.68555 32.6659 9.43848 32.6893 10.3994L 32.6893 14.7764C 32.6893 15.6494 32.8007 16.3438 33.0233 16.8594L 33.0233 17L 31.3183 17ZM 28.62 15.7607C 29.1298 15.7607 29.6132 15.6289 30.0702 15.3652C 30.5272 15.1016 30.8583 14.7588 31.0634 14.3369L 31.0634 12.3857L 29.789 12.3857C 27.7968 12.3857 26.8007 12.9688 26.8007 14.1348C 26.8007 14.6445 26.9706 15.043 27.3104 15.3301C 27.6503 15.6172 28.0868 15.7607 28.62 15.7607ZM 43.2714 12.3506C 43.2714 13.7979 42.9403 14.9639 42.2782 15.8486C 41.6161 16.7334 40.7196 17.1758 39.5888 17.1758C 38.4345 17.1758 37.5263 16.8096 36.8642 16.0771L 36.8642 20.6562L 35.2382 20.6562L 35.2382 7.49023L 36.7235 7.49023L 36.8026 8.54492C 37.4647 7.72461 38.3847 7.31445 39.5624 7.31445C 40.705 7.31445 41.6073 7.74512 42.2694 8.60645C 42.9374 9.46777 43.2714 10.666 43.2714 12.2012L 43.2714 12.3506ZM 41.6454 12.166C 41.6454 11.0938 41.4169 10.2471 40.9599 9.62598C 40.5028 9.00488 39.8759 8.69434 39.079 8.69434C 38.0946 8.69434 37.3563 9.13086 36.8642 10.0039L 36.8642 14.5479C 37.3505 15.415 38.0946 15.8486 39.0966 15.8486C 39.8759 15.8486 40.494 15.541 40.9511 14.9258C 41.414 14.3047 41.6454 13.3848 41.6454 12.166ZM 53.3788 12.3506C 53.3788 13.7979 53.0477 14.9639 52.3856 15.8486C 51.7235 16.7334 50.827 17.1758 49.6962 17.1758C 48.5419 17.1758 47.6337 16.8096 46.9716 16.0771L 46.9716 20.6562L 45.3456 20.6562L 45.3456 7.49023L 46.8309 7.49023L 46.91 8.54492C 47.5722 7.72461 48.4921 7.31445 49.6698 7.31445C 50.8124 7.31445 51.7147 7.74512 52.3768 8.60645C 53.0448 9.46777 53.3788 10.666 53.3788 12.2012L 53.3788 12.3506ZM 51.7528 12.166C 51.7528 11.0938 51.5243 10.2471 51.0673 9.62598C 50.6102 9.00488 49.9833 8.69434 49.1864 8.69434C 48.202 8.69434 47.4638 9.13086 46.9716 10.0039L 46.9716 14.5479C 47.4579 15.415 48.202 15.8486 49.204 15.8486C 49.9833 15.8486 50.6015 15.541 51.0585 14.9258C 51.5214 14.3047 51.7528 13.3848 51.7528 12.166ZM 57.2196 17L 55.5936 17L 55.5936 3.5L 57.2196 3.5L 57.2196 17ZM 63.7763 17.1758C 62.4872 17.1758 61.4384 16.7539 60.6298 15.9102C 59.8212 15.0605 59.4169 13.9268 59.4169 12.5088L 59.4169 12.21C 59.4169 11.2666 59.5956 10.4258 59.953 9.6875C 60.3163 8.94336 60.8202 8.36328 61.4647 7.94727C 62.1151 7.52539 62.8183 7.31445 63.5741 7.31445C 64.8104 7.31445 65.7714 7.72168 66.4569 8.53613C 67.1425 9.35059 67.4852 10.5166 67.4852 12.0342L 67.4852 12.7109L 61.0429 12.7109C 61.0663 13.6484 61.3388 14.4072 61.8602 14.9873C 62.3876 15.5615 63.0556 15.8486 63.8642 15.8486C 64.4384 15.8486 64.9247 15.7314 65.3231 15.4971C 65.7216 15.2627 66.0702 14.9521 66.369 14.5654L 67.3622 15.3389C 66.5653 16.5635 65.37 17.1758 63.7763 17.1758ZM 63.5741 8.65039C 62.9179 8.65039 62.3671 8.89062 61.9218 9.37109C 61.4765 9.8457 61.2011 10.5137 61.0956 11.375L 65.8593 11.375L 65.8593 11.252C 65.8124 10.4258 65.5897 9.78711 65.1913 9.33594C 64.7929 8.87891 64.2538 8.65039 63.5741 8.65039Z"/>
<path id="path2_fill" d="M 26.1094 12.3506C 26.1094 13.8037 25.7754 14.9727 25.1074 15.8574C 24.4395 16.7363 23.543 17.1758 22.418 17.1758C 21.2168 17.1758 20.2881 16.751 19.6318 15.9014L 19.5527 17L 18.0586 17L 18.0586 3.5L 19.6846 3.5L 19.6846 8.53613C 20.3408 7.72168 21.2461 7.31445 22.4004 7.31445C 23.5547 7.31445 24.46 7.75098 25.1162 8.62402C 25.7783 9.49707 26.1094 10.6924 26.1094 12.21L 26.1094 12.3506ZM 24.4834 12.166C 24.4834 11.0586 24.2695 10.2031 23.8418 9.59961C 23.4141 8.99609 22.7988 8.69434 21.9961 8.69434C 20.9238 8.69434 20.1533 9.19238 19.6846 10.1885L 19.6846 14.3018C 20.1826 15.2979 20.959 15.7959 22.0137 15.7959C 22.793 15.7959 23.3994 15.4941 23.833 14.8906C 24.2666 14.2871 24.4834 13.3789 24.4834 12.166ZM 34.0371 17C 33.9434 16.8125 33.8672 16.4785 33.8086 15.998C 33.0527 16.7832 32.1504 17.1758 31.1016 17.1758C 30.1641 17.1758 29.3936 16.9121 28.79 16.3848C 28.1924 15.8516 27.8936 15.1777 27.8936 14.3633C 27.8936 13.373 28.2686 12.6055 29.0186 12.0605C 29.7744 11.5098 30.835 11.2344 32.2002 11.2344L 33.7822 11.2344L 33.7822 10.4873C 33.7822 9.91895 33.6123 9.46777 33.2725 9.13379C 32.9326 8.79395 32.4316 8.62402 31.7695 8.62402C 31.1895 8.62402 30.7031 8.77051 30.3105 9.06348C 29.918 9.35645 29.7217 9.71094 29.7217 10.127L 28.0869 10.127C 28.0869 9.65234 28.2539 9.19531 28.5879 8.75586C 28.9277 8.31055 29.3848 7.95898 29.959 7.70117C 30.5391 7.44336 31.1748 7.31445 31.8662 7.31445C 32.9619 7.31445 33.8203 7.58984 34.4414 8.14062C 35.0625 8.68555 35.3848 9.43848 35.4082 10.3994L 35.4082 14.7764C 35.4082 15.6494 35.5195 16.3438 35.7422 16.8594L 35.7422 17L 34.0371 17ZM 31.3389 15.7607C 31.8486 15.7607 32.332 15.6289 32.7891 15.3652C 33.2461 15.1016 33.5771 14.7588 33.7822 14.3369L 33.7822 12.3857L 32.5078 12.3857C 30.5156 12.3857 29.5195 12.9688 29.5195 14.1348C 29.5195 14.6445 29.6895 15.043 30.0293 15.3301C 30.3691 15.6172 30.8057 15.7607 31.3389 15.7607ZM 39.4951 7.49023L 39.5479 8.68555C 40.2744 7.77148 41.2236 7.31445 42.3955 7.31445C 44.4053 7.31445 45.4189 8.44824 45.4365 10.7158L 45.4365 17L 43.8105 17L 43.8105 10.707C 43.8047 10.0215 43.6465 9.51465 43.3359 9.18652C 43.0312 8.8584 42.5537 8.69434 41.9033 8.69434C 41.376 8.69434 40.9131 8.83496 40.5146 9.11621C 40.1162 9.39746 39.8057 9.7666 39.583 10.2236L 39.583 17L 37.957 17L 37.957 7.49023L 39.4951 7.49023ZM 53.7598 17C 53.666 16.8125 53.5898 16.4785 53.5312 15.998C 52.7754 16.7832 51.873 17.1758 50.8242 17.1758C 49.8867 17.1758 49.1162 16.9121 48.5127 16.3848C 47.915 15.8516 47.6162 15.1777 47.6162 14.3633C 47.6162 13.373 47.9912 12.6055 48.7412 12.0605C 49.4971 11.5098 50.5576 11.2344 51.9229 11.2344L 53.5049 11.2344L 53.5049 10.4873C 53.5049 9.91895 53.335 9.46777 52.9951 9.13379C 52.6553 8.79395 52.1543 8.62402 51.4922 8.62402C 50.9121 8.62402 50.4258 8.77051 50.0332 9.06348C 49.6406 9.35645 49.4443 9.71094 49.4443 10.127L 47.8096 10.127C 47.8096 9.65234 47.9766 9.19531 48.3105 8.75586C 48.6504 8.31055 49.1074 7.95898 49.6816 7.70117C 50.2617 7.44336 50.8975 7.31445 51.5889 7.31445C 52.6846 7.31445 53.543 7.58984 54.1641 8.14062C 54.7852 8.68555 55.1074 9.43848 55.1309 10.3994L 55.1309 14.7764C 55.1309 15.6494 55.2422 16.3438 55.4648 16.8594L 55.4648 17L 53.7598 17ZM 51.0615 15.7607C 51.5713 15.7607 52.0547 15.6289 52.5117 15.3652C 52.9688 15.1016 53.2998 14.7588 53.5049 14.3369L 53.5049 12.3857L 52.2305 12.3857C 50.2383 12.3857 49.2422 12.9688 49.2422 14.1348C 49.2422 14.6445 49.4121 15.043 49.752 15.3301C 50.0918 15.6172 50.5283 15.7607 51.0615 15.7607ZM 59.2178 7.49023L 59.2705 8.68555C 59.9971 7.77148 60.9463 7.31445 62.1182 7.31445C 64.1279 7.31445 65.1416 8.44824 65.1592 10.7158L 65.1592 17L 63.5332 17L 63.5332 10.707C 63.5273 10.0215 63.3691 9.51465 63.0586 9.18652C 62.7539 8.8584 62.2764 8.69434 61.626 8.69434C 61.0986 8.69434 60.6357 8.83496 60.2373 9.11621C 59.8389 9.39746 59.5283 9.7666 59.3057 10.2236L 59.3057 17L 57.6797 17L 57.6797 7.49023L 59.2178 7.49023ZM 73.4824 17C 73.3887 16.8125 73.3125 16.4785 73.2539 15.998C 72.498 16.7832 71.5957 17.1758 70.5469 17.1758C 69.6094 17.1758 68.8389 16.9121 68.2354 16.3848C 67.6377 15.8516 67.3389 15.1777 67.3389 14.3633C 67.3389 13.373 67.7139 12.6055 68.4639 12.0605C 69.2197 11.5098 70.2803 11.2344 71.6455 11.2344L 73.2275 11.2344L 73.2275 10.4873C 73.2275 9.91895 73.0576 9.46777 72.7178 9.13379C 72.3779 8.79395 71.877 8.62402 71.2148 8.62402C 70.6348 8.62402 70.1484 8.77051 69.7559 9.06348C 69.3633 9.35645 69.167 9.71094 69.167 10.127L 67.5322 10.127C 67.5322 9.65234 67.6992 9.19531 68.0332 8.75586C 68.373 8.31055 68.8301 7.95898 69.4043 7.70117C 69.9844 7.44336 70.6201 7.31445 71.3115 7.31445C 72.4072 7.31445 73.2656 7.58984 73.8867 8.14062C 74.5078 8.68555 74.8301 9.43848 74.8535 10.3994L 74.8535 14.7764C 74.8535 15.6494 74.9648 16.3438 75.1875 16.8594L 75.1875 17L 73.4824 17ZM 70.7842 15.7607C 71.2939 15.7607 71.7773 15.6289 72.2344 15.3652C 72.6914 15.1016 73.0225 14.7588 73.2275 14.3369L 73.2275 12.3857L 71.9531 12.3857C 69.9609 12.3857 68.9648 12.9688 68.9648 14.1348C 68.9648 14.6445 69.1348 15.043 69.4746 15.3301C 69.8145 15.6172 70.251 15.7607 70.7842 15.7607Z"/>
<path id="path3_fill" d="M 26.6631 15.8486C 27.2432 15.8486 27.75 15.6729 28.1836 15.3213C 28.6172 14.9697 28.8574 14.5303 28.9043 14.0029L 30.4424 14.0029C 30.4131 14.5479 30.2256 15.0664 29.8799 15.5586C 29.5342 16.0508 29.0713 16.4434 28.4912 16.7363C 27.917 17.0293 27.3076 17.1758 26.6631 17.1758C 25.3682 17.1758 24.3369 16.7451 23.5693 15.8838C 22.8076 15.0166 22.4268 13.833 22.4268 12.333L 22.4268 12.0605C 22.4268 11.1348 22.5967 10.3115 22.9365 9.59082C 23.2764 8.87012 23.7627 8.31055 24.3955 7.91211C 25.0342 7.51367 25.7871 7.31445 26.6543 7.31445C 27.7207 7.31445 28.6055 7.63379 29.3086 8.27246C 30.0176 8.91113 30.3955 9.74023 30.4424 10.7598L 28.9043 10.7598C 28.8574 10.1445 28.623 9.64063 28.2012 9.24805C 27.7852 8.84961 27.2695 8.65039 26.6543 8.65039C 25.8281 8.65039 25.1865 8.94922 24.7295 9.54688C 24.2783 10.1387 24.0527 10.9971 24.0527 12.1221L 24.0527 12.4297C 24.0527 13.5254 24.2783 14.3691 24.7295 14.9609C 25.1807 15.5527 25.8252 15.8486 26.6631 15.8486ZM 33.8965 8.6416C 34.6172 7.75684 35.5547 7.31445 36.709 7.31445C 38.7188 7.31445 39.7324 8.44824 39.75 10.7158L 39.75 17L 38.124 17L 38.124 10.707C 38.1182 10.0215 37.96 9.51465 37.6494 9.18652C 37.3447 8.8584 36.8672 8.69434 36.2168 8.69434C 35.6895 8.69434 35.2266 8.83496 34.8281 9.11621C 34.4297 9.39746 34.1191 9.7666 33.8965 10.2236L 33.8965 17L 32.2705 17L 32.2705 3.5L 33.8965 3.5L 33.8965 8.6416ZM 46.1309 17.1758C 44.8418 17.1758 43.793 16.7539 42.9844 15.9102C 42.1758 15.0605 41.7715 13.9268 41.7715 12.5088L 41.7715 12.21C 41.7715 11.2666 41.9502 10.4258 42.3076 9.6875C 42.6709 8.94336 43.1748 8.36328 43.8193 7.94727C 44.4697 7.52539 45.1729 7.31445 45.9287 7.31445C 47.165 7.31445 48.126 7.72168 48.8115 8.53613C 49.4971 9.35059 49.8398 10.5166 49.8398 12.0342L 49.8398 12.7109L 43.3975 12.7109C 43.4209 13.6484 43.6934 14.4072 44.2148 14.9873C 44.7422 15.5615 45.4102 15.8486 46.2188 15.8486C 46.793 15.8486 47.2793 15.7314 47.6777 15.4971C 48.0762 15.2627 48.4248 14.9521 48.7236 14.5654L 49.7168 15.3389C 48.9199 16.5635 47.7246 17.1758 46.1309 17.1758ZM 45.9287 8.65039C 45.2725 8.65039 44.7217 8.89062 44.2764 9.37109C 43.8311 9.8457 43.5557 10.5137 43.4502 11.375L 48.2139 11.375L 48.2139 11.252C 48.167 10.4258 47.9443 9.78711 47.5459 9.33594C 47.1475 8.87891 46.6084 8.65039 45.9287 8.65039ZM 56.3262 8.94922C 56.0801 8.9082 55.8135 8.8877 55.5264 8.8877C 54.46 8.8877 53.7363 9.3418 53.3555 10.25L 53.3555 17L 51.7295 17L 51.7295 7.49023L 53.3115 7.49023L 53.3379 8.58887C 53.8711 7.73926 54.627 7.31445 55.6055 7.31445C 55.9219 7.31445 56.1621 7.35547 56.3262 7.4375L 56.3262 8.94922ZM 62.4258 8.94922C 62.1797 8.9082 61.9131 8.8877 61.626 8.8877C 60.5596 8.8877 59.8359 9.3418 59.4551 10.25L 59.4551 17L 57.8291 17L 57.8291 7.49023L 59.4111 7.49023L 59.4375 8.58887C 59.9707 7.73926 60.7266 7.31445 61.7051 7.31445C 62.0215 7.31445 62.2617 7.35547 62.4258 7.4375L 62.4258 8.94922ZM 67.1982 14.6182L 69.4131 7.49023L 71.1533 7.49023L 67.3301 18.4678C 66.7383 20.0498 65.7979 20.8408 64.5088 20.8408L 64.2012 20.8145L 63.5947 20.7002L 63.5947 19.3818L 64.0342 19.417C 64.585 19.417 65.0127 19.3057 65.3174 19.083C 65.6279 18.8604 65.8828 18.4531 66.082 17.8613L 66.4424 16.8945L 63.0498 7.49023L 64.8252 7.49023L 67.1982 14.6182Z"/>
<path id="path4_fill" d="M 24.6943 12.166C 24.6943 10.6836 25.0371 9.50586 25.7227 8.63281C 26.4082 7.75391 27.3164 7.31445 28.4473 7.31445C 29.6074 7.31445 30.5127 7.72461 31.1631 8.54492L 31.2422 7.49023L 32.7275 7.49023L 32.7275 16.7715C 32.7275 18.002 32.3613 18.9717 31.6289 19.6807C 30.9023 20.3896 29.9238 20.7441 28.6934 20.7441C 28.0078 20.7441 27.3369 20.5977 26.6807 20.3047C 26.0244 20.0117 25.5234 19.6104 25.1777 19.1006L 26.0215 18.125C 26.7188 18.9863 27.5713 19.417 28.5791 19.417C 29.3701 19.417 29.9854 19.1943 30.4248 18.749C 30.8701 18.3037 31.0928 17.6768 31.0928 16.8682L 31.0928 16.0508C 30.4424 16.8008 29.5547 17.1758 28.4297 17.1758C 27.3164 17.1758 26.4141 16.7275 25.7227 15.8311C 25.0371 14.9346 24.6943 13.7129 24.6943 12.166ZM 26.3291 12.3506C 26.3291 13.4229 26.5488 14.2666 26.9883 14.8818C 27.4277 15.4912 28.043 15.7959 28.834 15.7959C 29.8594 15.7959 30.6123 15.3301 31.0928 14.3984L 31.0928 10.0566C 30.5947 9.14844 29.8477 8.69434 28.8516 8.69434C 28.0605 8.69434 27.4424 9.00195 26.9971 9.61719C 26.5518 10.2324 26.3291 11.1436 26.3291 12.3506ZM 39.7852 8.94922C 39.5391 8.9082 39.2725 8.8877 38.9854 8.8877C 37.9189 8.8877 37.1953 9.3418 36.8145 10.25L 36.8145 17L 35.1885 17L 35.1885 7.49023L 36.7705 7.49023L 36.7969 8.58887C 37.3301 7.73926 38.0859 7.31445 39.0645 7.31445C 39.3809 7.31445 39.6211 7.35547 39.7852 7.4375L 39.7852 8.94922ZM 46.8076 17C 46.7139 16.8125 46.6377 16.4785 46.5791 15.998C 45.8232 16.7832 44.9209 17.1758 43.8721 17.1758C 42.9346 17.1758 42.1641 16.9121 41.5605 16.3848C 40.9629 15.8516 40.6641 15.1777 40.6641 14.3633C 40.6641 13.373 41.0391 12.6055 41.7891 12.0605C 42.5449 11.5098 43.6055 11.2344 44.9707 11.2344L 46.5527 11.2344L 46.5527 10.4873C 46.5527 9.91895 46.3828 9.46777 46.043 9.13379C 45.7031 8.79395 45.2021 8.62402 44.54 8.62402C 43.96 8.62402 43.4736 8.77051 43.0811 9.06348C 42.6885 9.35645 42.4922 9.71094 42.4922 10.127L 40.8574 10.127C 40.8574 9.65234 41.0244 9.19531 41.3584 8.75586C 41.6982 8.31055 42.1553 7.95898 42.7295 7.70117C 43.3096 7.44336 43.9453 7.31445 44.6367 7.31445C 45.7324 7.31445 46.5908 7.58984 47.2119 8.14062C 47.833 8.68555 48.1553 9.43848 48.1787 10.3994L 48.1787 14.7764C 48.1787 15.6494 48.29 16.3438 48.5127 16.8594L 48.5127 17L 46.8076 17ZM 44.1094 15.7607C 44.6191 15.7607 45.1025 15.6289 45.5596 15.3652C 46.0166 15.1016 46.3477 14.7588 46.5527 14.3369L 46.5527 12.3857L 45.2783 12.3857C 43.2861 12.3857 42.29 12.9688 42.29 14.1348C 42.29 14.6445 42.46 15.043 42.7998 15.3301C 43.1396 15.6172 43.5762 15.7607 44.1094 15.7607ZM 58.7607 12.3506C 58.7607 13.7979 58.4297 14.9639 57.7676 15.8486C 57.1055 16.7334 56.209 17.1758 55.0781 17.1758C 53.9238 17.1758 53.0156 16.8096 52.3535 16.0771L 52.3535 20.6562L 50.7275 20.6562L 50.7275 7.49023L 52.2129 7.49023L 52.292 8.54492C 52.9541 7.72461 53.874 7.31445 55.0518 7.31445C 56.1943 7.31445 57.0967 7.74512 57.7588 8.60645C 58.4268 9.46777 58.7607 10.666 58.7607 12.2012L 58.7607 12.3506ZM 57.1348 12.166C 57.1348 11.0938 56.9062 10.2471 56.4492 9.62598C 55.9922 9.00488 55.3652 8.69434 54.5684 8.69434C 53.584 8.69434 52.8457 9.13086 52.3535 10.0039L 52.3535 14.5479C 52.8398 15.415 53.584 15.8486 54.5859 15.8486C 55.3652 15.8486 55.9834 15.541 56.4404 14.9258C 56.9033 14.3047 57.1348 13.3848 57.1348 12.166ZM 64.7812 17.1758C 63.4922 17.1758 62.4434 16.7539 61.6348 15.9102C 60.8262 15.0605 60.4219 13.9268 60.4219 12.5088L 60.4219 12.21C 60.4219 11.2666 60.6006 10.4258 60.958 9.6875C 61.3213 8.94336 61.8252 8.36328 62.4697 7.94727C 63.1201 7.52539 63.8232 7.31445 64.5791 7.31445C 65.8154 7.31445 66.7764 7.72168 67.4619 8.53613C 68.1475 9.35059 68.4902 10.5166 68.4902 12.0342L 68.4902 12.7109L 62.0479 12.7109C 62.0713 13.6484 62.3437 14.4072 62.8652 14.9873C 63.3926 15.5615 64.0605 15.8486 64.8691 15.8486C 65.4434 15.8486 65.9297 15.7314 66.3281 15.4971C 66.7266 15.2627 67.0752 14.9521 67.374 14.5654L 68.3672 15.3389C 67.5703 16.5635 66.375 17.1758 64.7812 17.1758ZM 64.5791 8.65039C 63.9229 8.65039 63.3721 8.89062 62.9268 9.37109C 62.4814 9.8457 62.2061 10.5137 62.1006 11.375L 66.8643 11.375L 66.8643 11.252C 66.8174 10.4258 66.5947 9.78711 66.1963 9.33594C 65.7979 8.87891 65.2588 8.65039 64.5791 8.65039Z"/>
<path id="path5_fill" d="M 19.6055 12.1572C 19.6055 11.2256 19.7871 10.3877 20.1504 9.64355C 20.5195 8.89941 21.0293 8.3252 21.6797 7.9209C 22.3359 7.5166 23.083 7.31445 23.9209 7.31445C 25.2158 7.31445 26.2617 7.7627 27.0586 8.65918C 27.8613 9.55566 28.2627 10.748 28.2627 12.2363L 28.2627 12.3506C 28.2627 13.2764 28.084 14.1084 27.7266 14.8467C 27.375 15.5791 26.8682 16.1504 26.2061 16.5605C 25.5498 16.9707 24.7939 17.1758 23.9385 17.1758C 22.6494 17.1758 21.6035 16.7275 20.8008 15.8311C 20.0039 14.9346 19.6055 13.748 19.6055 12.2715L 19.6055 12.1572ZM 21.2402 12.3506C 21.2402 13.4053 21.4834 14.252 21.9697 14.8906C 22.4619 15.5293 23.1182 15.8486 23.9385 15.8486C 24.7646 15.8486 25.4209 15.5264 25.9072 14.8818C 26.3936 14.2314 26.6367 13.3232 26.6367 12.1572C 26.6367 11.1143 26.3877 10.2705 25.8896 9.62598C 25.3975 8.97559 24.7412 8.65039 23.9209 8.65039C 23.1182 8.65039 22.4707 8.96973 21.9785 9.6084C 21.4863 10.2471 21.2402 11.1611 21.2402 12.3506ZM 34.8984 8.94922C 34.6523 8.9082 34.3857 8.8877 34.0986 8.8877C 33.0322 8.8877 32.3086 9.3418 31.9277 10.25L 31.9277 17L 30.3018 17L 30.3018 7.49023L 31.8838 7.49023L 31.9102 8.58887C 32.4434 7.73926 33.1992 7.31445 34.1777 7.31445C 34.4941 7.31445 34.7344 7.35547 34.8984 7.4375L 34.8984 8.94922ZM 41.9209 17C 41.8271 16.8125 41.751 16.4785 41.6924 15.998C 40.9365 16.7832 40.0342 17.1758 38.9854 17.1758C 38.0479 17.1758 37.2773 16.9121 36.6738 16.3848C 36.0762 15.8516 35.7773 15.1777 35.7773 14.3633C 35.7773 13.373 36.1523 12.6055 36.9023 12.0605C 37.6582 11.5098 38.7187 11.2344 40.084 11.2344L 41.666 11.2344L 41.666 10.4873C 41.666 9.91895 41.4961 9.46777 41.1562 9.13379C 40.8164 8.79395 40.3154 8.62402 39.6533 8.62402C 39.0732 8.62402 38.5869 8.77051 38.1943 9.06348C 37.8018 9.35645 37.6055 9.71094 37.6055 10.127L 35.9707 10.127C 35.9707 9.65234 36.1377 9.19531 36.4717 8.75586C 36.8115 8.31055 37.2686 7.95898 37.8428 7.70117C 38.4229 7.44336 39.0586 7.31445 39.75 7.31445C 40.8457 7.31445 41.7041 7.58984 42.3252 8.14062C 42.9463 8.68555 43.2686 9.43848 43.292 10.3994L 43.292 14.7764C 43.292 15.6494 43.4033 16.3438 43.626 16.8594L 43.626 17L 41.9209 17ZM 39.2227 15.7607C 39.7324 15.7607 40.2158 15.6289 40.6729 15.3652C 41.1299 15.1016 41.4609 14.7588 41.666 14.3369L 41.666 12.3857L 40.3916 12.3857C 38.3994 12.3857 37.4033 12.9688 37.4033 14.1348C 37.4033 14.6445 37.5732 15.043 37.9131 15.3301C 38.2529 15.6172 38.6895 15.7607 39.2227 15.7607ZM 47.3789 7.49023L 47.4316 8.68555C 48.1582 7.77148 49.1074 7.31445 50.2793 7.31445C 52.2891 7.31445 53.3027 8.44824 53.3203 10.7158L 53.3203 17L 51.6943 17L 51.6943 10.707C 51.6885 10.0215 51.5303 9.51465 51.2197 9.18652C 50.915 8.8584 50.4375 8.69434 49.7871 8.69434C 49.2598 8.69434 48.7969 8.83496 48.3984 9.11621C 48 9.39746 47.6895 9.7666 47.4668 10.2236L 47.4668 17L 45.8408 17L 45.8408 7.49023L 47.3789 7.49023ZM 55.3857 12.166C 55.3857 10.6836 55.7285 9.50586 56.4141 8.63281C 57.0996 7.75391 58.0078 7.31445 59.1387 7.31445C 60.2988 7.31445 61.2041 7.72461 61.8545 8.54492L 61.9336 7.49023L 63.4189 7.49023L 63.4189 16.7715C 63.4189 18.002 63.0527 18.9717 62.3203 19.6807C 61.5937 20.3896 60.6152 20.7441 59.3848 20.7441C 58.6992 20.7441 58.0283 20.5977 57.3721 20.3047C 56.7158 20.0117 56.2148 19.6104 55.8691 19.1006L 56.7129 18.125C 57.4102 18.9863 58.2627 19.417 59.2705 19.417C 60.0615 19.417 60.6768 19.1943 61.1162 18.749C 61.5615 18.3037 61.7842 17.6768 61.7842 16.8682L 61.7842 16.0508C 61.1338 16.8008 60.2461 17.1758 59.1211 17.1758C 58.0078 17.1758 57.1055 16.7275 56.4141 15.8311C 55.7285 14.9346 55.3857 13.7129 55.3857 12.166ZM 57.0205 12.3506C 57.0205 13.4229 57.2402 14.2666 57.6797 14.8818C 58.1191 15.4912 58.7344 15.7959 59.5254 15.7959C 60.5508 15.7959 61.3037 15.3301 61.7842 14.3984L 61.7842 10.0566C 61.2861 9.14844 60.5391 8.69434 59.543 8.69434C 58.752 8.69434 58.1338 9.00195 57.6885 9.61719C 57.2432 10.2324 57.0205 11.1436 57.0205 12.3506ZM 69.8262 17.1758C 68.5371 17.1758 67.4883 16.7539 66.6797 15.9102C 65.8711 15.0605 65.4668 13.9268 65.4668 12.5088L 65.4668 12.21C 65.4668 11.2666 65.6455 10.4258 66.0029 9.6875C 66.3662 8.94336 66.8701 8.36328 67.5146 7.94727C 68.165 7.52539 68.8682 7.31445 69.624 7.31445C 70.8604 7.31445 71.8213 7.72168 72.5068 8.53613C 73.1924 9.35059 73.5352 10.5166 73.5352 12.0342L 73.5352 12.7109L 67.0928 12.7109C 67.1162 13.6484 67.3887 14.4072 67.9102 14.9873C 68.4375 15.5615 69.1055 15.8486 69.9141 15.8486C 70.4883 15.8486 70.9746 15.7314 71.373 15.4971C 71.7715 15.2627 72.1201 14.9521 72.4189 14.5654L 73.4121 15.3389C 72.6152 16.5635 71.4199 17.1758 69.8262 17.1758ZM 69.624 8.65039C 68.9678 8.65039 68.417 8.89062 67.9717 9.37109C 67.5264 9.8457 67.251 10.5137 67.1455 11.375L 71.9092 11.375L 71.9092 11.252C 71.8623 10.4258 71.6396 9.78711 71.2412 9.33594C 70.8428 8.87891 70.3037 8.65039 69.624 8.65039Z"/>
<path id="path6_fill" d="M 0 0L 330 0L 330 31L 0 31L 0 0Z"/>
<path id="path7_fill" d="M 1.624 12.082C 2.016 12.3527 2.422 12.5673 2.842 12.726C 3.27133 12.8753 3.752 12.95 4.284 12.95C 4.82533 12.95 5.222 12.8753 5.474 12.726C 5.726 12.5673 5.852 12.3667 5.852 12.124C 5.852 11.8813 5.68867 11.6807 5.362 11.522C 5.03533 11.354 4.522 11.1767 3.822 10.99C 3.49533 10.906 3.178 10.8033 2.87 10.682C 2.562 10.5607 2.29133 10.4207 2.058 10.262C 1.82467 10.1033 1.638 9.92133 1.498 9.716C 1.358 9.51067 1.288 9.27733 1.288 9.016C 1.288 8.40933 1.54933 7.91467 2.072 7.532C 2.59467 7.14933 3.346 6.958 4.326 6.958C 4.886 6.958 5.41333 7.05133 5.908 7.238C 6.40267 7.42467 6.82733 7.63467 7.182 7.868L 6.44 8.862C 6.132 8.65667 5.80067 8.49333 5.446 8.372C 5.10067 8.24133 4.732 8.176 4.34 8.176C 3.808 8.176 3.43467 8.25067 3.22 8.4C 3.00533 8.54 2.898 8.71733 2.898 8.932C 2.898 9.05333 2.94467 9.16533 3.038 9.268C 3.14067 9.36133 3.276 9.45 3.444 9.534C 3.62133 9.60867 3.82667 9.68333 4.06 9.758C 4.29333 9.83267 4.55 9.90267 4.83 9.968C 5.23133 10.0707 5.59067 10.1873 5.908 10.318C 6.23467 10.4393 6.51 10.5793 6.734 10.738C 6.96733 10.8967 7.14467 11.0833 7.266 11.298C 7.39667 11.5127 7.462 11.76 7.462 12.04C 7.462 12.3387 7.392 12.6187 7.252 12.88C 7.112 13.132 6.90667 13.356 6.636 13.552C 6.36533 13.7387 6.02933 13.888 5.628 14C 5.22667 14.112 4.76467 14.168 4.242 14.168C 3.598 14.168 2.982 14.0653 2.394 13.86C 1.806 13.6547 1.29733 13.4027 0.868 13.104L 1.624 12.082ZM 9.13653 10.57C 9.13653 10.0007 9.22986 9.492 9.41653 9.044C 9.61253 8.596 9.8692 8.218 10.1865 7.91C 10.5039 7.602 10.8725 7.36867 11.2925 7.21C 11.7125 7.042 12.1465 6.958 12.5945 6.958C 13.0425 6.958 13.4765 7.042 13.8965 7.21C 14.3165 7.36867 14.6852 7.602 15.0025 7.91C 15.3199 8.218 15.5719 8.596 15.7585 9.044C 15.9545 9.492 16.0525 10.0007 16.0525 10.57C 16.0525 11.1393 15.9545 11.648 15.7585 12.096C 15.5719 12.544 15.3199 12.922 15.0025 13.23C 14.6852 13.538 14.3165 13.7713 13.8965 13.93C 13.4765 14.0887 13.0425 14.168 12.5945 14.168C 12.1465 14.168 11.7125 14.0887 11.2925 13.93C 10.8725 13.7713 10.5039 13.538 10.1865 13.23C 9.8692 12.922 9.61253 12.544 9.41653 12.096C 9.22986 11.648 9.13653 11.1393 9.13653 10.57ZM 10.8025 10.57C 10.8025 11.2607 10.9612 11.816 11.2785 12.236C 11.5959 12.6467 12.0345 12.852 12.5945 12.852C 13.1545 12.852 13.5932 12.6467 13.9105 12.236C 14.2279 11.816 14.3865 11.2607 14.3865 10.57C 14.3865 9.87 14.2279 9.31467 13.9105 8.904C 13.5932 8.484 13.1545 8.274 12.5945 8.274C 12.0345 8.274 11.5959 8.484 11.2785 8.904C 10.9612 9.31467 10.8025 9.87 10.8025 10.57ZM 18.6091 7.126L 19.9391 7.126L 20.0791 8.68L 20.1211 8.68C 20.4757 8.12 20.9004 7.69533 21.3951 7.406C 21.8991 7.10733 22.4497 6.958 23.0471 6.958C 23.3271 6.958 23.5651 6.98133 23.7611 7.028C 23.9664 7.06533 24.1717 7.13533 24.3771 7.238L 24.0411 8.596C 23.8171 8.52133 23.6164 8.47 23.4391 8.442C 23.2711 8.40467 23.0564 8.386 22.7951 8.386C 22.3191 8.386 21.8617 8.52133 21.4231 8.792C 20.9844 9.06267 20.5877 9.534 20.2331 10.206L 20.2331 14L 18.6091 14L 18.6091 7.126ZM 27.8436 8.4L 26.0096 8.4L 26.0096 7.196L 27.9136 7.126L 28.1236 5.25L 29.4536 5.25L 29.4536 7.126L 32.5896 7.126L 32.5896 8.4L 29.4536 8.4L 29.4536 11.228C 29.4536 11.7973 29.5703 12.2173 29.8036 12.488C 30.0369 12.7493 30.4476 12.88 31.0356 12.88C 31.3343 12.88 31.6049 12.8567 31.8476 12.81C 32.0903 12.754 32.3236 12.684 32.5476 12.6L 32.8556 13.776C 32.5476 13.8787 32.2069 13.9673 31.8336 14.042C 31.4603 14.126 31.0636 14.168 30.6436 14.168C 30.1209 14.168 29.6823 14.098 29.3276 13.958C 28.9729 13.818 28.6836 13.622 28.4596 13.37C 28.2449 13.1087 28.0863 12.796 27.9836 12.432C 27.8903 12.068 27.8436 11.6667 27.8436 11.228L 27.8436 8.4ZM 34.4461 10.57C 34.4461 10.01 34.5441 9.506 34.7401 9.058C 34.9455 8.61 35.2115 8.232 35.5381 7.924C 35.8648 7.60667 36.2381 7.36867 36.6581 7.21C 37.0875 7.042 37.5261 6.958 37.9741 6.958C 38.4875 6.958 38.9401 7.042 39.3321 7.21C 39.7335 7.36867 40.0695 7.59267 40.3401 7.882C 40.6108 8.162 40.8161 8.50267 40.9561 8.904C 41.0961 9.30533 41.1661 9.744 41.1661 10.22C 41.1661 10.3787 41.1568 10.528 41.1381 10.668C 41.1288 10.808 41.1148 10.92 41.0961 11.004L 36.0981 11.004C 36.1541 11.62 36.3968 12.096 36.8261 12.432C 37.2555 12.7587 37.7828 12.922 38.4081 12.922C 38.7628 12.922 39.0941 12.8753 39.4021 12.782C 39.7101 12.6793 40.0228 12.5393 40.3401 12.362L 40.8861 13.37C 40.5128 13.6033 40.0975 13.7947 39.6401 13.944C 39.1828 14.0933 38.7021 14.168 38.1981 14.168C 37.6755 14.168 37.1855 14.0887 36.7281 13.93C 36.2708 13.762 35.8741 13.524 35.5381 13.216C 35.2021 12.908 34.9361 12.5347 34.7401 12.096C 34.5441 11.648 34.4461 11.1393 34.4461 10.57ZM 39.6821 9.912C 39.6821 9.38 39.5421 8.96467 39.2621 8.666C 38.9821 8.358 38.5668 8.204 38.0161 8.204C 37.5495 8.204 37.1341 8.34867 36.7701 8.638C 36.4061 8.92733 36.1775 9.352 36.0841 9.912L 39.6821 9.912ZM 42.7147 10.57C 42.7147 10.01 42.7987 9.506 42.9667 9.058C 43.1347 8.61 43.3587 8.232 43.6387 7.924C 43.928 7.616 44.2547 7.378 44.6187 7.21C 44.9827 7.042 45.3607 6.958 45.7527 6.958C 46.1633 6.958 46.5133 7.03267 46.8027 7.182C 47.1013 7.322 47.3907 7.518 47.6707 7.77L 47.6007 6.608L 47.6007 4.116L 49.2247 4.116L 49.2247 14L 47.8947 14L 47.7687 13.202L 47.7267 13.202C 47.456 13.4727 47.1387 13.7013 46.7747 13.888C 46.42 14.0747 46.0467 14.168 45.6547 14.168C 45.216 14.168 44.8147 14.0887 44.4507 13.93C 44.0867 13.762 43.774 13.524 43.5127 13.216C 43.2607 12.908 43.0647 12.5347 42.9247 12.096C 42.7847 11.648 42.7147 11.1393 42.7147 10.57ZM 44.3807 10.556C 44.3807 11.3027 44.5253 11.872 44.8147 12.264C 45.104 12.6467 45.5147 12.838 46.0467 12.838C 46.616 12.838 47.134 12.5627 47.6007 12.012L 47.6007 8.918C 47.358 8.68467 47.1153 8.52133 46.8727 8.428C 46.63 8.33467 46.3827 8.288 46.1307 8.288C 45.888 8.288 45.6593 8.33933 45.4447 8.442C 45.2393 8.54467 45.0573 8.694 44.8987 8.89C 44.74 9.07667 44.614 9.31 44.5207 9.59C 44.4273 9.87 44.3807 10.192 44.3807 10.556ZM 57.9272 14.868L 57.9272 16.128L 51.2072 16.128L 51.2072 14.868L 57.9272 14.868ZM 66.5737 5.516C 66.3217 5.41333 66.0744 5.33867 65.8317 5.292C 65.5984 5.24533 65.3417 5.222 65.0617 5.222C 64.5297 5.222 64.1424 5.35267 63.8997 5.614C 63.6664 5.866 63.5497 6.23467 63.5497 6.72L 63.5497 7.126L 66.1677 7.126L 66.1677 8.4L 63.5497 8.4L 63.5497 14L 61.9537 14L 61.9537 8.4L 60.0497 8.4L 60.0497 7.196L 61.9537 7.126L 61.9537 6.748C 61.9537 6.34667 62.0097 5.97333 62.1217 5.628C 62.2337 5.28267 62.4064 4.98867 62.6397 4.746C 62.8824 4.494 63.1857 4.298 63.5497 4.158C 63.9231 4.018 64.3617 3.948 64.8657 3.948C 65.2391 3.948 65.5937 3.98067 65.9297 4.046C 66.2751 4.11133 66.6017 4.20467 66.9097 4.326L 66.5737 5.516ZM 68.9762 7.126L 70.3062 7.126L 70.4462 8.68L 70.4883 8.68C 70.8429 8.12 71.2676 7.69533 71.7622 7.406C 72.2663 7.10733 72.8169 6.958 73.4142 6.958C 73.6943 6.958 73.9322 6.98133 74.1282 7.028C 74.3336 7.06533 74.5389 7.13533 74.7442 7.238L 74.4083 8.596C 74.1842 8.52133 73.9836 8.47 73.8062 8.442C 73.6382 8.40467 73.4236 8.386 73.1622 8.386C 72.6863 8.386 72.2289 8.52133 71.7903 8.792C 71.3516 9.06267 70.9549 9.534 70.6003 10.206L 70.6003 14L 68.9762 14L 68.9762 7.126ZM 82.7608 14L 81.4448 14L 81.3188 12.908L 81.2628 12.908C 80.9361 13.2907 80.5768 13.5987 80.1848 13.832C 79.7928 14.056 79.3401 14.168 78.8268 14.168C 78.0241 14.168 77.4408 13.93 77.0768 13.454C 76.7128 12.9687 76.5308 12.278 76.5308 11.382L 76.5308 7.126L 78.1408 7.126L 78.1408 11.172C 78.1408 11.732 78.2341 12.1427 78.4208 12.404C 78.6168 12.656 78.9528 12.782 79.4288 12.782C 79.7554 12.782 80.0448 12.7073 80.2968 12.558C 80.5581 12.4087 80.8428 12.1427 81.1508 11.76L 81.1508 7.126L 82.7608 7.126L 82.7608 14ZM 85.1213 7.126L 89.7133 7.126L 89.7133 14L 88.1033 14L 88.1033 8.4L 85.1213 8.4L 85.1213 7.126ZM 88.7893 5.922C 88.4626 5.922 88.1873 5.824 87.9633 5.628C 87.7486 5.432 87.6413 5.17067 87.6413 4.844C 87.6413 4.51733 87.7486 4.256 87.9633 4.06C 88.1873 3.85467 88.4626 3.752 88.7893 3.752C 89.1253 3.752 89.4006 3.85467 89.6153 4.06C 89.83 4.256 89.9373 4.51733 89.9373 4.844C 89.9373 5.17067 89.83 5.432 89.6153 5.628C 89.4006 5.824 89.1253 5.922 88.7893 5.922ZM 94.9998 8.4L 93.1658 8.4L 93.1658 7.196L 95.0698 7.126L 95.2798 5.25L 96.6098 5.25L 96.6098 7.126L 99.7458 7.126L 99.7458 8.4L 96.6098 8.4L 96.6098 11.228C 96.6098 11.7973 96.7265 12.2173 96.9598 12.488C 97.1932 12.7493 97.6038 12.88 98.1918 12.88C 98.4905 12.88 98.7612 12.8567 99.0038 12.81C 99.2465 12.754 99.4798 12.684 99.7038 12.6L 100.012 13.776C 99.7038 13.8787 99.3632 13.9673 98.9898 14.042C 98.6165 14.126 98.2198 14.168 97.7998 14.168C 97.2772 14.168 96.8385 14.098 96.4838 13.958C 96.1292 13.818 95.8398 13.622 95.6158 13.37C 95.4012 13.1087 95.2425 12.796 95.1398 12.432C 95.0465 12.068 94.9998 11.6667 94.9998 11.228L 94.9998 8.4ZM 110.221 7.224L 116.437 7.224L 116.437 8.4L 110.221 8.4L 110.221 7.224ZM 110.221 10.346L 116.437 10.346L 116.437 11.522L 110.221 11.522L 110.221 10.346ZM 133.73 5.516C 133.478 5.41333 133.231 5.33867 132.988 5.292C 132.755 5.24533 132.498 5.222 132.218 5.222C 131.686 5.222 131.299 5.35267 131.056 5.614C 130.823 5.866 130.706 6.23467 130.706 6.72L 130.706 7.126L 133.324 7.126L 133.324 8.4L 130.706 8.4L 130.706 14L 129.11 14L 129.11 8.4L 127.206 8.4L 127.206 7.196L 129.11 7.126L 129.11 6.748C 129.11 6.34667 129.166 5.97333 129.278 5.628C 129.39 5.28267 129.563 4.98867 129.796 4.746C 130.039 4.494 130.342 4.298 130.706 4.158C 131.079 4.018 131.518 3.948 132.022 3.948C 132.395 3.948 132.75 3.98067 133.086 4.046C 133.431 4.11133 133.758 4.20467 134.066 4.326L 133.73 5.516ZM 136.132 7.126L 137.462 7.126L 137.602 8.68L 137.645 8.68C 137.999 8.12 138.424 7.69533 138.918 7.406C 139.423 7.10733 139.973 6.958 140.57 6.958C 140.851 6.958 141.088 6.98133 141.284 7.028C 141.49 7.06533 141.695 7.13533 141.9 7.238L 141.565 8.596C 141.34 8.52133 141.14 8.47 140.962 8.442C 140.794 8.40467 140.58 8.386 140.318 8.386C 139.843 8.386 139.385 8.52133 138.947 8.792C 138.508 9.06267 138.111 9.534 137.757 10.206L 137.757 14L 136.132 14L 136.132 7.126ZM 149.917 14L 148.601 14L 148.475 12.908L 148.419 12.908C 148.092 13.2907 147.733 13.5987 147.341 13.832C 146.949 14.056 146.496 14.168 145.983 14.168C 145.18 14.168 144.597 13.93 144.233 13.454C 143.869 12.9687 143.687 12.278 143.687 11.382L 143.687 7.126L 145.297 7.126L 145.297 11.172C 145.297 11.732 145.39 12.1427 145.577 12.404C 145.773 12.656 146.109 12.782 146.585 12.782C 146.912 12.782 147.201 12.7073 147.453 12.558C 147.714 12.4087 147.999 12.1427 148.307 11.76L 148.307 7.126L 149.917 7.126L 149.917 14ZM 152.278 7.126L 156.87 7.126L 156.87 14L 155.26 14L 155.26 8.4L 152.278 8.4L 152.278 7.126ZM 155.946 5.922C 155.619 5.922 155.344 5.824 155.12 5.628C 154.905 5.432 154.798 5.17067 154.798 4.844C 154.798 4.51733 154.905 4.256 155.12 4.06C 155.344 3.85467 155.619 3.752 155.946 3.752C 156.282 3.752 156.557 3.85467 156.772 4.06C 156.986 4.256 157.094 4.51733 157.094 4.844C 157.094 5.17067 156.986 5.432 156.772 5.628C 156.557 5.824 156.282 5.922 155.946 5.922ZM 162.156 8.4L 160.322 8.4L 160.322 7.196L 162.226 7.126L 162.436 5.25L 163.766 5.25L 163.766 7.126L 166.902 7.126L 166.902 8.4L 163.766 8.4L 163.766 11.228C 163.766 11.7973 163.883 12.2173 164.116 12.488C 164.349 12.7493 164.76 12.88 165.348 12.88C 165.647 12.88 165.917 12.8567 166.16 12.81C 166.403 12.754 166.636 12.684 166.86 12.6L 167.168 13.776C 166.86 13.8787 166.519 13.9673 166.146 14.042C 165.773 14.126 165.376 14.168 164.956 14.168C 164.433 14.168 163.995 14.098 163.64 13.958C 163.285 13.818 162.996 13.622 162.772 13.37C 162.557 13.1087 162.399 12.796 162.296 12.432C 162.203 12.068 162.156 11.6667 162.156 11.228L 162.156 8.4ZM 170.873 4.088L 174.877 4.088L 174.877 4.97L 172.119 4.97L 172.119 15.246L 174.877 15.246L 174.877 16.128L 170.873 16.128L 170.873 4.088ZM 177.909 12.082C 178.301 12.3527 178.707 12.5673 179.127 12.726C 179.556 12.8753 180.037 12.95 180.569 12.95C 181.11 12.95 181.507 12.8753 181.759 12.726C 182.011 12.5673 182.137 12.3667 182.137 12.124C 182.137 11.8813 181.974 11.6807 181.647 11.522C 181.32 11.354 180.807 11.1767 180.107 10.99C 179.78 10.906 179.463 10.8033 179.155 10.682C 178.847 10.5607 178.576 10.4207 178.343 10.262C 178.11 10.1033 177.923 9.92133 177.783 9.716C 177.643 9.51067 177.573 9.27733 177.573 9.016C 177.573 8.40933 177.834 7.91467 178.357 7.532C 178.88 7.14933 179.631 6.958 180.611 6.958C 181.171 6.958 181.698 7.05133 182.193 7.238C 182.688 7.42467 183.112 7.63467 183.467 7.868L 182.725 8.862C 182.417 8.65667 182.086 8.49333 181.731 8.372C 181.386 8.24133 181.017 8.176 180.625 8.176C 180.093 8.176 179.72 8.25067 179.505 8.4C 179.29 8.54 179.183 8.71733 179.183 8.932C 179.183 9.05333 179.23 9.16533 179.323 9.268C 179.426 9.36133 179.561 9.45 179.729 9.534C 179.906 9.60867 180.112 9.68333 180.345 9.758C 180.578 9.83267 180.835 9.90267 181.115 9.968C 181.516 10.0707 181.876 10.1873 182.193 10.318C 182.52 10.4393 182.795 10.5793 183.019 10.738C 183.252 10.8967 183.43 11.0833 183.551 11.298C 183.682 11.5127 183.747 11.76 183.747 12.04C 183.747 12.3387 183.677 12.6187 183.537 12.88C 183.397 13.132 183.192 13.356 182.921 13.552C 182.65 13.7387 182.314 13.888 181.913 14C 181.512 14.112 181.05 14.168 180.527 14.168C 179.883 14.168 179.267 14.0653 178.679 13.86C 178.091 13.6547 177.582 13.4027 177.153 13.104L 177.909 12.082ZM 185.422 10.57C 185.422 10.0007 185.515 9.492 185.702 9.044C 185.898 8.596 186.154 8.218 186.472 7.91C 186.789 7.602 187.158 7.36867 187.578 7.21C 187.998 7.042 188.432 6.958 188.88 6.958C 189.328 6.958 189.762 7.042 190.182 7.21C 190.602 7.36867 190.97 7.602 191.288 7.91C 191.605 8.218 191.857 8.596 192.044 9.044C 192.24 9.492 192.338 10.0007 192.338 10.57C 192.338 11.1393 192.24 11.648 192.044 12.096C 191.857 12.544 191.605 12.922 191.288 13.23C 190.97 13.538 190.602 13.7713 190.182 13.93C 189.762 14.0887 189.328 14.168 188.88 14.168C 188.432 14.168 187.998 14.0887 187.578 13.93C 187.158 13.7713 186.789 13.538 186.472 13.23C 186.154 12.922 185.898 12.544 185.702 12.096C 185.515 11.648 185.422 11.1393 185.422 10.57ZM 187.088 10.57C 187.088 11.2607 187.246 11.816 187.564 12.236C 187.881 12.6467 188.32 12.852 188.88 12.852C 189.44 12.852 189.878 12.6467 190.196 12.236C 190.513 11.816 190.672 11.2607 190.672 10.57C 190.672 9.87 190.513 9.31467 190.196 8.904C 189.878 8.484 189.44 8.274 188.88 8.274C 188.32 8.274 187.881 8.484 187.564 8.904C 187.246 9.31467 187.088 9.87 187.088 10.57ZM 194.894 7.126L 196.224 7.126L 196.364 8.68L 196.406 8.68C 196.761 8.12 197.186 7.69533 197.68 7.406C 198.184 7.10733 198.735 6.958 199.332 6.958C 199.612 6.958 199.85 6.98133 200.046 7.028C 200.252 7.06533 200.457 7.13533 200.662 7.238L 200.326 8.596C 200.102 8.52133 199.902 8.47 199.724 8.442C 199.556 8.40467 199.342 8.386 199.08 8.386C 198.604 8.386 198.147 8.52133 197.708 8.792C 197.27 9.06267 196.873 9.534 196.518 10.206L 196.518 14L 194.894 14L 194.894 7.126ZM 204.129 8.4L 202.295 8.4L 202.295 7.196L 204.199 7.126L 204.409 5.25L 205.739 5.25L 205.739 7.126L 208.875 7.126L 208.875 8.4L 205.739 8.4L 205.739 11.228C 205.739 11.7973 205.855 12.2173 206.089 12.488C 206.322 12.7493 206.733 12.88 207.321 12.88C 207.619 12.88 207.89 12.8567 208.133 12.81C 208.375 12.754 208.609 12.684 208.833 12.6L 209.141 13.776C 208.833 13.8787 208.492 13.9673 208.119 14.042C 207.745 14.126 207.349 14.168 206.929 14.168C 206.406 14.168 205.967 14.098 205.613 13.958C 205.258 13.818 204.969 13.622 204.745 13.37C 204.53 13.1087 204.371 12.796 204.269 12.432C 204.175 12.068 204.129 11.6667 204.129 11.228L 204.129 8.4ZM 210.731 10.57C 210.731 10.01 210.829 9.506 211.025 9.058C 211.231 8.61 211.497 8.232 211.823 7.924C 212.15 7.60667 212.523 7.36867 212.943 7.21C 213.373 7.042 213.811 6.958 214.259 6.958C 214.773 6.958 215.225 7.042 215.617 7.21C 216.019 7.36867 216.355 7.59267 216.625 7.882C 216.896 8.162 217.101 8.50267 217.241 8.904C 217.381 9.30533 217.451 9.744 217.451 10.22C 217.451 10.3787 217.442 10.528 217.423 10.668C 217.414 10.808 217.4 10.92 217.381 11.004L 212.383 11.004C 212.439 11.62 212.682 12.096 213.111 12.432C 213.541 12.7587 214.068 12.922 214.693 12.922C 215.048 12.922 215.379 12.8753 215.687 12.782C 215.995 12.6793 216.308 12.5393 216.625 12.362L 217.171 13.37C 216.798 13.6033 216.383 13.7947 215.925 13.944C 215.468 14.0933 214.987 14.168 214.483 14.168C 213.961 14.168 213.471 14.0887 213.013 13.93C 212.556 13.762 212.159 13.524 211.823 13.216C 211.487 12.908 211.221 12.5347 211.025 12.096C 210.829 11.648 210.731 11.1393 210.731 10.57ZM 215.967 9.912C 215.967 9.38 215.827 8.96467 215.547 8.666C 215.267 8.358 214.852 8.204 214.301 8.204C 213.835 8.204 213.419 8.34867 213.055 8.638C 212.691 8.92733 212.463 9.352 212.369 9.912L 215.967 9.912ZM 219 10.57C 219 10.01 219.084 9.506 219.252 9.058C 219.42 8.61 219.644 8.232 219.924 7.924C 220.213 7.616 220.54 7.378 220.904 7.21C 221.268 7.042 221.646 6.958 222.038 6.958C 222.448 6.958 222.798 7.03267 223.088 7.182C 223.386 7.322 223.676 7.518 223.956 7.77L 223.886 6.608L 223.886 4.116L 225.51 4.116L 225.51 14L 224.18 14L 224.054 13.202L 224.012 13.202C 223.741 13.4727 223.424 13.7013 223.06 13.888C 222.705 14.0747 222.332 14.168 221.94 14.168C 221.501 14.168 221.1 14.0887 220.736 13.93C 220.372 13.762 220.059 13.524 219.798 13.216C 219.546 12.908 219.35 12.5347 219.21 12.096C 219.07 11.648 219 11.1393 219 10.57ZM 220.666 10.556C 220.666 11.3027 220.81 11.872 221.1 12.264C 221.389 12.6467 221.8 12.838 222.332 12.838C 222.901 12.838 223.419 12.5627 223.886 12.012L 223.886 8.918C 223.643 8.68467 223.4 8.52133 223.158 8.428C 222.915 8.33467 222.668 8.288 222.416 8.288C 222.173 8.288 221.944 8.33933 221.73 8.442C 221.524 8.54467 221.342 8.694 221.184 8.89C 221.025 9.07667 220.899 9.31 220.806 9.59C 220.712 9.87 220.666 10.192 220.666 10.556ZM 234.212 14.868L 234.212 16.128L 227.492 16.128L 227.492 14.868L 234.212 14.868ZM 235.789 10.57C 235.789 10.0007 235.882 9.492 236.069 9.044C 236.265 8.596 236.522 8.218 236.839 7.91C 237.156 7.602 237.525 7.36867 237.945 7.21C 238.365 7.042 238.799 6.958 239.247 6.958C 239.695 6.958 240.129 7.042 240.549 7.21C 240.969 7.36867 241.338 7.602 241.655 7.91C 241.972 8.218 242.224 8.596 242.411 9.044C 242.607 9.492 242.705 10.0007 242.705 10.57C 242.705 11.1393 242.607 11.648 242.411 12.096C 242.224 12.544 241.972 12.922 241.655 13.23C 241.338 13.538 240.969 13.7713 240.549 13.93C 240.129 14.0887 239.695 14.168 239.247 14.168C 238.799 14.168 238.365 14.0887 237.945 13.93C 237.525 13.7713 237.156 13.538 236.839 13.23C 236.522 12.922 236.265 12.544 236.069 12.096C 235.882 11.648 235.789 11.1393 235.789 10.57ZM 237.455 10.57C 237.455 11.2607 237.614 11.816 237.931 12.236C 238.248 12.6467 238.687 12.852 239.247 12.852C 239.807 12.852 240.246 12.6467 240.563 12.236C 240.88 11.816 241.039 11.2607 241.039 10.57C 241.039 9.87 240.88 9.31467 240.563 8.904C 240.246 8.484 239.807 8.274 239.247 8.274C 238.687 8.274 238.248 8.484 237.931 8.904C 237.614 9.31467 237.455 9.87 237.455 10.57ZM 245.261 7.126L 246.591 7.126L 246.731 8.68L 246.773 8.68C 247.128 8.12 247.553 7.69533 248.047 7.406C 248.551 7.10733 249.102 6.958 249.699 6.958C 249.979 6.958 250.217 6.98133 250.413 7.028C 250.619 7.06533 250.824 7.13533 251.029 7.238L 250.693 8.596C 250.469 8.52133 250.269 8.47 250.091 8.442C 249.923 8.40467 249.709 8.386 249.447 8.386C 248.971 8.386 248.514 8.52133 248.075 8.792C 247.637 9.06267 247.24 9.534 246.885 10.206L 246.885 14L 245.261 14L 245.261 7.126ZM 252.578 10.57C 252.578 10.01 252.662 9.506 252.83 9.058C 252.998 8.61 253.222 8.232 253.502 7.924C 253.791 7.616 254.118 7.378 254.482 7.21C 254.846 7.042 255.224 6.958 255.616 6.958C 256.027 6.958 256.377 7.03267 256.666 7.182C 256.965 7.322 257.254 7.518 257.534 7.77L 257.464 6.608L 257.464 4.116L 259.088 4.116L 259.088 14L 257.758 14L 257.632 13.202L 257.59 13.202C 257.319 13.4727 257.002 13.7013 256.638 13.888C 256.283 14.0747 255.91 14.168 255.518 14.168C 255.079 14.168 254.678 14.0887 254.314 13.93C 253.95 13.762 253.637 13.524 253.376 13.216C 253.124 12.908 252.928 12.5347 252.788 12.096C 252.648 11.648 252.578 11.1393 252.578 10.57ZM 254.244 10.556C 254.244 11.3027 254.389 11.872 254.678 12.264C 254.967 12.6467 255.378 12.838 255.91 12.838C 256.479 12.838 256.997 12.5627 257.464 12.012L 257.464 8.918C 257.221 8.68467 256.979 8.52133 256.736 8.428C 256.493 8.33467 256.246 8.288 255.994 8.288C 255.751 8.288 255.523 8.33933 255.308 8.442C 255.103 8.54467 254.921 8.694 254.762 8.89C 254.603 9.07667 254.477 9.31 254.384 9.59C 254.291 9.87 254.244 10.192 254.244 10.556ZM 261.098 10.57C 261.098 10.01 261.196 9.506 261.392 9.058C 261.598 8.61 261.864 8.232 262.19 7.924C 262.517 7.60667 262.89 7.36867 263.31 7.21C 263.74 7.042 264.178 6.958 264.626 6.958C 265.14 6.958 265.592 7.042 265.984 7.21C 266.386 7.36867 266.722 7.59267 266.992 7.882C 267.263 8.162 267.468 8.50267 267.608 8.904C 267.748 9.30533 267.818 9.744 267.818 10.22C 267.818 10.3787 267.809 10.528 267.79 10.668C 267.781 10.808 267.767 10.92 267.748 11.004L 262.75 11.004C 262.806 11.62 263.049 12.096 263.478 12.432C 263.908 12.7587 264.435 12.922 265.06 12.922C 265.415 12.922 265.746 12.8753 266.054 12.782C 266.362 12.6793 266.675 12.5393 266.992 12.362L 267.538 13.37C 267.165 13.6033 266.75 13.7947 266.292 13.944C 265.835 14.0933 265.354 14.168 264.85 14.168C 264.328 14.168 263.838 14.0887 263.38 13.93C 262.923 13.762 262.526 13.524 262.19 13.216C 261.854 12.908 261.588 12.5347 261.392 12.096C 261.196 11.648 261.098 11.1393 261.098 10.57ZM 266.334 9.912C 266.334 9.38 266.194 8.96467 265.914 8.666C 265.634 8.358 265.219 8.204 264.668 8.204C 264.202 8.204 263.786 8.34867 263.422 8.638C 263.058 8.92733 262.83 9.352 262.736 9.912L 266.334 9.912ZM 270.445 7.126L 271.775 7.126L 271.915 8.68L 271.957 8.68C 272.312 8.12 272.736 7.69533 273.231 7.406C 273.735 7.10733 274.286 6.958 274.883 6.958C 275.163 6.958 275.401 6.98133 275.597 7.028C 275.802 7.06533 276.008 7.13533 276.213 7.238L 275.877 8.596C 275.653 8.52133 275.452 8.47 275.275 8.442C 275.107 8.40467 274.892 8.386 274.631 8.386C 274.155 8.386 273.698 8.52133 273.259 8.792C 272.82 9.06267 272.424 9.534 272.069 10.206L 272.069 14L 270.445 14L 270.445 7.126ZM 281.192 15.246L 281.192 4.97L 278.448 4.97L 278.448 4.088L 282.452 4.088L 282.452 16.128L 278.448 16.128L 278.448 15.246L 281.192 15.246Z"/>
</defs>
</svg>
