<svg width="1202" height="462" viewBox="0 0 1202 462" version="1.1" xmlns="http://www.w3.org/2000/svg" xmlns:xlink="http://www.w3.org/1999/xlink">
<title>Frame</title>
<desc>Created using Figma</desc>
<g id="Canvas" transform="matrix(2 0 0 2 306 990)">
<clipPath id="clip-0" clip-rule="evenodd">
<path d="M -153 -495L 448 -495L 448 -264L -153 -264L -153 -495Z" fill="#FFFFFF"/>
</clipPath>
<g id="Frame" clip-path="url(#clip-0)">
<path d="M -153 -495L 448 -495L 448 -264L -153 -264L -153 -495Z" fill="#FFFFFF"/>
<g id="Group">
<g id="Result">
<use xlink:href="#path0_fill" transform="translate(385 -295)" fill="#4F4F4F"/>
</g>
<g id="Rectangle">
<use xlink:href="#path1_stroke" transform="translate(375 -480)"/>
</g>
<g id="11">
<use xlink:href="#path2_fill" transform="translate(376.227 -475.675)"/>
</g>
<g id="Rectangle">
<use xlink:href="#path1_stroke" transform="translate(375 -458.375)"/>
</g>
<g id="4">
<use xlink:href="#path3_fill" transform="translate(376.227 -454.05)"/>
</g>
<g id="Rectangle">
<use xlink:href="#path1_stroke" transform="translate(375 -436.75)"/>
</g>
<g id="11">
<use xlink:href="#path2_fill" transform="translate(376.227 -432.425)"/>
</g>
<g id="Rectangle">
<use xlink:href="#path1_stroke" transform="translate(375 -415.125)"/>
</g>
<g id="5">
<use xlink:href="#path4_fill" transform="translate(376.227 -410.8)"/>
</g>
<g id="Rectangle">
<use xlink:href="#path1_stroke" transform="translate(375 -393.5)"/>
</g>
<g id="10">
<use xlink:href="#path5_fill" transform="translate(376.227 -389.175)"/>
</g>
<g id="Rectangle">
<use xlink:href="#path1_stroke" transform="translate(375 -371.875)"/>
</g>
<g id="13">
<use xlink:href="#path6_fill" transform="translate(376.227 -367.55)"/>
</g>
<g id="Rectangle">
<use xlink:href="#path1_stroke" transform="translate(375 -350.25)"/>
</g>
<g id="8">
<use xlink:href="#path7_fill" transform="translate(376.227 -345.925)"/>
</g>
<g id="Rectangle">
<use xlink:href="#path1_stroke" transform="translate(375 -328.625)"/>
</g>
<g id="12">
<use xlink:href="#path8_fill" transform="translate(376.227 -324.3)"/>
</g>
</g>
<g id="Group 3">
<g id="Group 2">
<g id="Rectangle">
<use xlink:href="#path1_stroke" transform="translate(193 -480)"/>
</g>
<g id="6">
<use xlink:href="#path9_fill" transform="translate(194.227 -475.675)"/>
</g>
<g id="Rectangle">
<use xlink:href="#path1_stroke" transform="translate(193 -458.375)"/>
</g>
<g id="1">
<use xlink:href="#path10_fill" transform="translate(194.227 -454.05)"/>
</g>
<g id="Rectangle">
<use xlink:href="#path1_stroke" transform="translate(193 -436.75)"/>
</g>
<g id="5">
<use xlink:href="#path11_fill" transform="translate(194.227 -432.425)"/>
</g>
<g id="Rectangle">
<use xlink:href="#path1_stroke" transform="translate(193 -415.125)"/>
</g>
<g id="1">
<use xlink:href="#path10_fill" transform="translate(194.227 -410.8)"/>
</g>
<g id="Rectangle">
<use xlink:href="#path1_stroke" transform="translate(193 -393.5)"/>
</g>
<g id="3">
<use xlink:href="#path12_fill" transform="translate(194.227 -389.175)"/>
</g>
<g id="Rectangle">
<use xlink:href="#path1_stroke" transform="translate(193 -371.875)"/>
</g>
<g id="5">
<use xlink:href="#path11_fill" transform="translate(194.227 -367.55)"/>
</g>
<g id="Rectangle">
<use xlink:href="#path1_stroke" transform="translate(193 -350.25)"/>
</g>
<g id="3">
<use xlink:href="#path12_fill" transform="translate(194.227 -345.925)"/>
</g>
<g id="Rectangle">
<use xlink:href="#path1_stroke" transform="translate(193 -328.625)"/>
</g>
<g id="8">
<use xlink:href="#path13_fill" transform="translate(194.227 -324.3)"/>
</g>
</g>
<g id="Group">
<g id="Rectangle">
<use xlink:href="#path1_stroke" transform="translate(271 -480)"/>
</g>
<g id="5">
<use xlink:href="#path11_fill" transform="translate(272.227 -475.675)"/>
</g>
<g id="Rectangle">
<use xlink:href="#path1_stroke" transform="translate(271 -458.375)"/>
</g>
<g id="3">
<use xlink:href="#path12_fill" transform="translate(272.227 -454.05)"/>
</g>
<g id="Rectangle">
<use xlink:href="#path1_stroke" transform="translate(271 -436.75)"/>
</g>
<g id="6">
<use xlink:href="#path9_fill" transform="translate(272.227 -432.425)"/>
</g>
<g id="Rectangle">
<use xlink:href="#path1_stroke" transform="translate(271 -415.125)"/>
</g>
<g id="4">
<use xlink:href="#path3_fill" transform="translate(272.227 -410.8)"/>
</g>
<g id="Rectangle">
<use xlink:href="#path1_stroke" transform="translate(271 -393.5)"/>
</g>
<g id="7">
<use xlink:href="#path14_fill" transform="translate(272.227 -389.175)"/>
</g>
<g id="Rectangle">
<use xlink:href="#path1_stroke" transform="translate(271 -371.875)"/>
</g>
<g id="8">
<use xlink:href="#path13_fill" transform="translate(272.227 -367.55)"/>
</g>
<g id="Rectangle">
<use xlink:href="#path1_stroke" transform="translate(271 -350.25)"/>
</g>
<g id="5">
<use xlink:href="#path11_fill" transform="translate(272.227 -345.925)"/>
</g>
<g id="Rectangle">
<use xlink:href="#path1_stroke" transform="translate(271 -328.625)"/>
</g>
<g id="4">
<use xlink:href="#path3_fill" transform="translate(272.227 -324.3)"/>
</g>
</g>
<g id="+">
<use xlink:href="#path15_fill" transform="translate(250 -476)"/>
</g>
<g id="+">
<use xlink:href="#path15_fill" transform="translate(250 -454)"/>
</g>
<g id="+">
<use xlink:href="#path15_fill" transform="translate(250 -434)"/>
</g>
<g id="+">
<use xlink:href="#path15_fill" transform="translate(250 -411)"/>
</g>
<g id="+">
<use xlink:href="#path15_fill" transform="translate(250 -389)"/>
</g>
<g id="+">
<use xlink:href="#path15_fill" transform="translate(250 -368)"/>
</g>
<g id="+">
<use xlink:href="#path15_fill" transform="translate(250 -346)"/>
</g>
<g id="+">
<use xlink:href="#path15_fill" transform="translate(250 -324)"/>
</g>
<g id="Vectorized addition">
<use xlink:href="#path16_fill" transform="translate(207 -295)" fill="#4F4F4F"/>
</g>
</g>
<g id="Group 2">
<g id="Group 2">
<g id="Rectangle">
<use xlink:href="#path1_stroke" transform="translate(23 -480)"/>
</g>
<g id="6">
<use xlink:href="#path9_fill" transform="translate(24.2273 -475.675)"/>
</g>
<g id="Rectangle">
<use xlink:href="#path1_stroke" transform="translate(23 -458.375)"/>
</g>
<g id="1">
<use xlink:href="#path10_fill" transform="translate(24.2273 -454.05)"/>
</g>
<g id="Rectangle">
<use xlink:href="#path1_stroke" transform="translate(23 -436.75)"/>
</g>
<g id="5">
<use xlink:href="#path11_fill" transform="translate(24.2273 -432.425)"/>
</g>
<g id="Rectangle">
<use xlink:href="#path1_stroke" transform="translate(23 -415.125)"/>
</g>
<g id="1">
<use xlink:href="#path10_fill" transform="translate(24.2273 -410.8)"/>
</g>
<g id="Rectangle">
<use xlink:href="#path1_stroke" transform="translate(23 -393.5)"/>
</g>
<g id="3">
<use xlink:href="#path12_fill" transform="translate(24.2273 -389.175)"/>
</g>
<g id="Rectangle">
<use xlink:href="#path1_stroke" transform="translate(23 -371.875)"/>
</g>
<g id="5">
<use xlink:href="#path11_fill" transform="translate(24.2273 -367.55)"/>
</g>
<g id="Rectangle">
<use xlink:href="#path1_stroke" transform="translate(23 -350.25)"/>
</g>
<g id="3">
<use xlink:href="#path12_fill" transform="translate(24.2273 -345.925)"/>
</g>
<g id="Rectangle">
<use xlink:href="#path1_stroke" transform="translate(23 -328.625)"/>
</g>
<g id="8">
<use xlink:href="#path13_fill" transform="translate(24.2273 -324.3)"/>
</g>
</g>
<g id="Group">
<g id="Rectangle">
<use xlink:href="#path1_stroke" transform="translate(89 -480)"/>
</g>
<g id="5">
<use xlink:href="#path11_fill" transform="translate(90.2273 -475.675)"/>
</g>
<g id="Rectangle">
<use xlink:href="#path1_stroke" transform="translate(89 -458.375)"/>
</g>
<g id="3">
<use xlink:href="#path12_fill" transform="translate(90.2273 -454.05)"/>
</g>
<g id="Rectangle">
<use xlink:href="#path1_stroke" transform="translate(89 -436.75)"/>
</g>
<g id="6">
<use xlink:href="#path9_fill" transform="translate(90.2273 -432.425)"/>
</g>
<g id="Rectangle">
<use xlink:href="#path1_stroke" transform="translate(89 -415.125)"/>
</g>
<g id="4">
<use xlink:href="#path3_fill" transform="translate(90.2273 -410.8)"/>
</g>
<g id="Rectangle">
<use xlink:href="#path1_stroke" transform="translate(89 -393.5)"/>
</g>
<g id="7">
<use xlink:href="#path14_fill" transform="translate(90.2273 -389.175)"/>
</g>
<g id="Rectangle">
<use xlink:href="#path1_stroke" transform="translate(89 -371.875)"/>
</g>
<g id="8">
<use xlink:href="#path13_fill" transform="translate(90.2273 -367.55)"/>
</g>
<g id="Rectangle">
<use xlink:href="#path1_stroke" transform="translate(89 -350.25)"/>
</g>
<g id="5">
<use xlink:href="#path11_fill" transform="translate(90.2273 -345.925)"/>
</g>
<g id="Rectangle">
<use xlink:href="#path1_stroke" transform="translate(89 -328.625)"/>
</g>
<g id="4">
<use xlink:href="#path3_fill" transform="translate(90.2273 -324.3)"/>
</g>
</g>
<g id="Two 1D arrays">
<use xlink:href="#path17_fill" transform="translate(45 -295)" fill="#4F4F4F"/>
</g>
</g>
<g id="Table">
<g id="Rectangle">
<use xlink:href="#path1_stroke" transform="translate(-134 -480)"/>
</g>
<g id="6">
<use xlink:href="#path9_fill" transform="translate(-132.773 -475.675)"/>
</g>
<g id="Rectangle">
<use xlink:href="#path1_stroke" transform="translate(-134 -458.375)"/>
</g>
<g id="1">
<use xlink:href="#path10_fill" transform="translate(-132.773 -454.05)"/>
</g>
<g id="Rectangle">
<use xlink:href="#path1_stroke" transform="translate(-134 -436.75)"/>
</g>
<g id="5">
<use xlink:href="#path11_fill" transform="translate(-132.773 -432.425)"/>
</g>
<g id="Rectangle">
<use xlink:href="#path1_stroke" transform="translate(-134 -415.125)"/>
</g>
<g id="1">
<use xlink:href="#path10_fill" transform="translate(-132.773 -410.8)"/>
</g>
<g id="Rectangle">
<use xlink:href="#path1_stroke" transform="translate(-80 -480)"/>
</g>
<g id="5">
<use xlink:href="#path11_fill" transform="translate(-78.7727 -475.675)"/>
</g>
<g id="Rectangle">
<use xlink:href="#path1_stroke" transform="translate(-80 -458.375)"/>
</g>
<g id="3">
<use xlink:href="#path12_fill" transform="translate(-78.7727 -454.05)"/>
</g>
<g id="Rectangle">
<use xlink:href="#path1_stroke" transform="translate(-80 -436.75)"/>
</g>
<g id="6">
<use xlink:href="#path9_fill" transform="translate(-78.7727 -432.425)"/>
</g>
<g id="Rectangle">
<use xlink:href="#path1_stroke" transform="translate(-80 -415.125)"/>
</g>
<g id="4">
<use xlink:href="#path3_fill" transform="translate(-78.7727 -410.8)"/>
</g>
<g id="Rectangle">
<use xlink:href="#path1_stroke" transform="translate(-134 -393.5)"/>
</g>
<g id="3">
<use xlink:href="#path12_fill" transform="translate(-132.773 -389.175)"/>
</g>
<g id="Rectangle">
<use xlink:href="#path1_stroke" transform="translate(-134 -371.875)"/>
</g>
<g id="5">
<use xlink:href="#path11_fill" transform="translate(-132.773 -367.55)"/>
</g>
<g id="Rectangle">
<use xlink:href="#path1_stroke" transform="translate(-134 -350.25)"/>
</g>
<g id="3">
<use xlink:href="#path12_fill" transform="translate(-132.773 -345.925)"/>
</g>
<g id="Rectangle">
<use xlink:href="#path1_stroke" transform="translate(-134 -328.625)"/>
</g>
<g id="8">
<use xlink:href="#path13_fill" transform="translate(-132.773 -324.3)"/>
</g>
<g id="Rectangle">
<use xlink:href="#path1_stroke" transform="translate(-80 -393.5)"/>
</g>
<g id="7">
<use xlink:href="#path14_fill" transform="translate(-78.7727 -389.175)"/>
</g>
<g id="Rectangle">
<use xlink:href="#path1_stroke" transform="translate(-80 -371.875)"/>
</g>
<g id="8">
<use xlink:href="#path13_fill" transform="translate(-78.7727 -367.55)"/>
</g>
<g id="Rectangle">
<use xlink:href="#path1_stroke" transform="translate(-80 -350.25)"/>
</g>
<g id="5">
<use xlink:href="#path11_fill" transform="translate(-78.7727 -345.925)"/>
</g>
<g id="Rectangle">
<use xlink:href="#path1_stroke" transform="translate(-80 -328.625)"/>
</g>
<g id="4">
<use xlink:href="#path3_fill" transform="translate(-78.7727 -324.3)"/>
</g>
<g id="2D array">
<use xlink:href="#path18_fill" transform="translate(-102 -295)" fill="#4F4F4F"/>
</g>
</g>
<g id="Arrow">
<use xlink:href="#path19_stroke" transform="translate(-20 -394)" fill="#2F80ED"/>
</g>
<g id="Arrow">
<use xlink:href="#path19_stroke" transform="translate(150 -394)" fill="#2F80ED"/>
</g>
<g id="Arrow">
<use xlink:href="#path19_stroke" transform="translate(332 -394)" fill="#2F80ED"/>
</g>
</g>
</g>
<defs>
<path id="path0_fill" d="M 4.11914 7.54883L 2.11523 7.54883L 2.11523 11L 0.984375 11L 0.984375 2.46875L 3.80859 2.46875C 4.76953 2.46875 5.50781 2.6875 6.02344 3.125C 6.54297 3.5625 6.80273 4.19922 6.80273 5.03516C 6.80273 5.56641 6.6582 6.0293 6.36914 6.42383C 6.08398 6.81836 5.68555 7.11328 5.17383 7.30859L 7.17773 10.9297L 7.17773 11L 5.9707 11L 4.11914 7.54883ZM 2.11523 6.62891L 3.84375 6.62891C 4.40234 6.62891 4.8457 6.48438 5.17383 6.19531C 5.50586 5.90625 5.67188 5.51953 5.67188 5.03516C 5.67188 4.50781 5.51367 4.10352 5.19727 3.82227C 4.88477 3.54102 4.43164 3.39844 3.83789 3.39453L 2.11523 3.39453L 2.11523 6.62891ZM 10.8457 11.1172C 9.98633 11.1172 9.28711 10.8359 8.74805 10.2734C 8.20898 9.70703 7.93945 8.95117 7.93945 8.00586L 7.93945 7.80664C 7.93945 7.17773 8.05859 6.61719 8.29688 6.125C 8.53906 5.62891 8.875 5.24219 9.30469 4.96484C 9.73828 4.68359 10.207 4.54297 10.7109 4.54297C 11.5352 4.54297 12.1758 4.81445 12.6328 5.35742C 13.0898 5.90039 13.3184 6.67773 13.3184 7.68945L 13.3184 8.14062L 9.02344 8.14062C 9.03906 8.76562 9.2207 9.27148 9.56836 9.6582C 9.91992 10.041 10.3652 10.2324 10.9043 10.2324C 11.2871 10.2324 11.6113 10.1543 11.877 9.99805C 12.1426 9.8418 12.375 9.63477 12.5742 9.37695L 13.2363 9.89258C 12.7051 10.709 11.9082 11.1172 10.8457 11.1172ZM 10.7109 5.43359C 10.2734 5.43359 9.90625 5.59375 9.60938 5.91406C 9.3125 6.23047 9.12891 6.67578 9.05859 7.25L 12.2344 7.25L 12.2344 7.16797C 12.2031 6.61719 12.0547 6.19141 11.7891 5.89062C 11.5234 5.58594 11.1641 5.43359 10.7109 5.43359ZM 18.2695 9.31836C 18.2695 9.02539 18.1582 8.79883 17.9355 8.63867C 17.7168 8.47461 17.332 8.33398 16.7812 8.2168C 16.2344 8.09961 15.7988 7.95898 15.4746 7.79492C 15.1543 7.63086 14.916 7.43555 14.7598 7.20898C 14.6074 6.98242 14.5312 6.71289 14.5312 6.40039C 14.5312 5.88086 14.75 5.44141 15.1875 5.08203C 15.6289 4.72266 16.1914 4.54297 16.875 4.54297C 17.5938 4.54297 18.1758 4.72852 18.6211 5.09961C 19.0703 5.4707 19.2949 5.94531 19.2949 6.52344L 18.2051 6.52344C 18.2051 6.22656 18.0781 5.9707 17.8242 5.75586C 17.5742 5.54102 17.2578 5.43359 16.875 5.43359C 16.4805 5.43359 16.1719 5.51953 15.9492 5.69141C 15.7266 5.86328 15.6152 6.08789 15.6152 6.36523C 15.6152 6.62695 15.7188 6.82422 15.9258 6.95703C 16.1328 7.08984 16.5059 7.2168 17.0449 7.33789C 17.5879 7.45898 18.0273 7.60352 18.3633 7.77148C 18.6992 7.93945 18.9473 8.14258 19.1074 8.38086C 19.2715 8.61523 19.3535 8.90234 19.3535 9.24219C 19.3535 9.80859 19.127 10.2637 18.6738 10.6074C 18.2207 10.9473 17.6328 11.1172 16.9102 11.1172C 16.4023 11.1172 15.9531 11.0273 15.5625 10.8477C 15.1719 10.668 14.8652 10.418 14.6426 10.0977C 14.4238 9.77344 14.3145 9.42383 14.3145 9.04883L 15.3984 9.04883C 15.418 9.41211 15.5625 9.70117 15.832 9.91602C 16.1055 10.127 16.4648 10.2324 16.9102 10.2324C 17.3203 10.2324 17.6484 10.1504 17.8945 9.98633C 18.1445 9.81836 18.2695 9.5957 18.2695 9.31836ZM 24.6797 10.373C 24.2578 10.8691 23.6387 11.1172 22.8223 11.1172C 22.1465 11.1172 21.6309 10.9219 21.2754 10.5312C 20.9238 10.1367 20.7461 9.55469 20.7422 8.78516L 20.7422 4.66016L 21.8262 4.66016L 21.8262 8.75586C 21.8262 9.7168 22.2168 10.1973 22.998 10.1973C 23.8262 10.1973 24.377 9.88867 24.6504 9.27148L 24.6504 4.66016L 25.7344 4.66016L 25.7344 11L 24.7031 11L 24.6797 10.373ZM 28.5645 11L 27.4805 11L 27.4805 2L 28.5645 2L 28.5645 11ZM 31.7754 3.125L 31.7754 4.66016L 32.959 4.66016L 32.959 5.49805L 31.7754 5.49805L 31.7754 9.42969C 31.7754 9.68359 31.8281 9.875 31.9336 10.0039C 32.0391 10.1289 32.2188 10.1914 32.4727 10.1914C 32.5977 10.1914 32.7695 10.168 32.9883 10.1211L 32.9883 11C 32.7031 11.0781 32.4258 11.1172 32.1562 11.1172C 31.6719 11.1172 31.3066 10.9707 31.0605 10.6777C 30.8145 10.3848 30.6914 9.96875 30.6914 9.42969L 30.6914 5.49805L 29.5371 5.49805L 29.5371 4.66016L 30.6914 4.66016L 30.6914 3.125L 31.7754 3.125Z"/>
<path id="path1_stroke" d="M 0 0L 0 -0.5L -0.5 -0.5L -0.5 0L 0 0ZM 54 0L 54.5 0L 54.5 -0.5L 54 -0.5L 54 0ZM 54 21.625L 54 22.125L 54.5 22.125L 54.5 21.625L 54 21.625ZM 0 21.625L -0.5 21.625L -0.5 22.125L 0 22.125L 0 21.625ZM 0 0.5L 54 0.5L 54 -0.5L 0 -0.5L 0 0.5ZM 53.5 0L 53.5 21.625L 54.5 21.625L 54.5 0L 53.5 0ZM 54 21.125L 0 21.125L 0 22.125L 54 22.125L 54 21.125ZM 0.5 21.625L 0.5 0L -0.5 0L -0.5 21.625L 0.5 21.625Z"/>
<path id="path2_fill" d="M 23.2016 13L 21.9301 13L 21.9301 4.57129L 19.3803 5.50781L 19.3803 4.35938L 23.0034 2.99902L 23.2016 2.99902L 23.2016 13ZM 31.0629 13L 29.7915 13L 29.7915 4.57129L 27.2417 5.50781L 27.2417 4.35938L 30.8647 2.99902L 31.0629 2.99902L 31.0629 13Z"/>
<path id="path3_fill" d="M 28.3149 9.65723L 29.6958 9.65723L 29.6958 10.6895L 28.3149 10.6895L 28.3149 13L 27.0434 13L 27.0434 10.6895L 22.5112 10.6895L 22.5112 9.94434L 26.9682 3.04688L 28.3149 3.04688L 28.3149 9.65723ZM 23.9467 9.65723L 27.0434 9.65723L 27.0434 4.77637L 26.893 5.0498L 23.9467 9.65723Z"/>
<path id="path4_fill" d="M 23.5571 8.00977L 24.0629 3.04688L 29.1626 3.04688L 29.1626 4.21582L 25.1362 4.21582L 24.8354 6.92969C 25.323 6.64258 25.8767 6.49902 26.4965 6.49902C 27.4034 6.49902 28.1235 6.7998 28.6567 7.40137C 29.1899 7.99837 29.4565 8.80729 29.4565 9.82812C 29.4565 10.8535 29.1785 11.6624 28.6225 12.2549C 28.0711 12.8428 27.2986 13.1367 26.3051 13.1367C 25.4256 13.1367 24.7078 12.8929 24.1518 12.4053C 23.5958 11.9176 23.2791 11.2432 23.2016 10.3818L 24.3979 10.3818C 24.4754 10.9515 24.6782 11.3822 25.0063 11.6738C 25.3344 11.9609 25.7674 12.1045 26.3051 12.1045C 26.893 12.1045 27.3533 11.904 27.686 11.5029C 28.0232 11.1019 28.1918 10.5482 28.1918 9.8418C 28.1918 9.17643 28.0096 8.64323 27.645 8.24219C 27.2849 7.83659 26.8042 7.63379 26.2026 7.63379C 25.6512 7.63379 25.2182 7.75456 24.9038 7.99609L 24.5688 8.26953L 23.5571 8.00977Z"/>
<path id="path5_fill" d="M 23.2016 13L 21.9301 13L 21.9301 4.57129L 19.3803 5.50781L 19.3803 4.35938L 23.0034 2.99902L 23.2016 2.99902L 23.2016 13ZM 33.1479 8.75488C 33.1479 10.236 32.895 11.3366 32.3891 12.0566C 31.8833 12.7767 31.0926 13.1367 30.017 13.1367C 28.9552 13.1367 28.1691 12.7858 27.6586 12.084C 27.1482 11.3776 26.8839 10.3249 26.8657 8.92578L 26.8657 7.2373C 26.8657 5.77441 27.1186 4.6875 27.6245 3.97656C 28.1303 3.26562 28.9233 2.91016 30.0034 2.91016C 31.0743 2.91016 31.8627 3.25423 32.3686 3.94238C 32.8745 4.62598 33.1342 5.68327 33.1479 7.11426L 33.1479 8.75488ZM 31.8833 7.02539C 31.8833 5.95443 31.7329 5.17513 31.4321 4.6875C 31.1313 4.19531 30.6551 3.94922 30.0034 3.94922C 29.3562 3.94922 28.8846 4.19303 28.5883 4.68066C 28.2921 5.16829 28.1394 5.91797 28.1303 6.92969L 28.1303 8.95312C 28.1303 10.0286 28.2853 10.8239 28.5952 11.3389C 28.9096 11.8493 29.3836 12.1045 30.017 12.1045C 30.6414 12.1045 31.104 11.863 31.4047 11.3799C 31.7101 10.8968 31.8696 10.1357 31.8833 9.09668L 31.8833 7.02539Z"/>
<path id="path6_fill" d="M 23.2016 13L 21.9301 13L 21.9301 4.57129L 19.3803 5.50781L 19.3803 4.35938L 23.0034 2.99902L 23.2016 2.99902L 23.2016 13ZM 28.7456 7.4082L 29.6958 7.4082C 30.2928 7.39909 30.7622 7.24186 31.104 6.93652C 31.4458 6.63118 31.6167 6.21875 31.6167 5.69922C 31.6167 4.53255 31.0356 3.94922 29.8735 3.94922C 29.3266 3.94922 28.8891 4.10645 28.561 4.4209C 28.2374 4.73079 28.0756 5.14323 28.0756 5.6582L 26.811 5.6582C 26.811 4.86979 27.0981 4.21582 27.6723 3.69629C 28.2511 3.1722 28.9848 2.91016 29.8735 2.91016C 30.8123 2.91016 31.5483 3.15853 32.0815 3.65527C 32.6147 4.15202 32.8813 4.84245 32.8813 5.72656C 32.8813 6.15951 32.74 6.57878 32.4575 6.98438C 32.1795 7.38997 31.7989 7.69303 31.3159 7.89355C 31.8627 8.06673 32.2843 8.35384 32.5805 8.75488C 32.8813 9.15592 33.0317 9.64583 33.0317 10.2246C 33.0317 11.1178 32.74 11.8265 32.1567 12.3506C 31.5734 12.8747 30.8146 13.1367 29.8803 13.1367C 28.9461 13.1367 28.185 12.8838 27.5971 12.3779C 27.0138 11.8721 26.7221 11.2044 26.7221 10.375L 27.9936 10.375C 27.9936 10.8991 28.1645 11.3184 28.5063 11.6328C 28.8481 11.9473 29.3061 12.1045 29.8803 12.1045C 30.491 12.1045 30.9581 11.945 31.2817 11.626C 31.6053 11.307 31.767 10.849 31.767 10.252C 31.767 9.67318 31.5893 9.22884 31.2338 8.91895C 30.8784 8.60905 30.3657 8.44954 29.6958 8.44043L 28.7456 8.44043L 28.7456 7.4082Z"/>
<path id="path7_fill" d="M 29.0122 5.64453C 29.0122 6.14128 28.88 6.58333 28.6157 6.9707C 28.3559 7.35807 28.0027 7.66113 27.5561 7.87988C 28.0756 8.10319 28.4858 8.42904 28.7866 8.85742C 29.0919 9.28581 29.2446 9.77116 29.2446 10.3135C 29.2446 11.1748 28.9529 11.8607 28.3696 12.3711C 27.7908 12.8815 27.0275 13.1367 26.0795 13.1367C 25.1225 13.1367 24.3546 12.8815 23.7758 12.3711C 23.2016 11.8561 22.9145 11.1702 22.9145 10.3135C 22.9145 9.77572 23.0603 9.29036 23.352 8.85742C 23.6482 8.42448 24.0561 8.09635 24.5756 7.87305C 24.1336 7.6543 23.7849 7.35124 23.5297 6.96387C 23.2745 6.5765 23.1469 6.13672 23.1469 5.64453C 23.1469 4.80599 23.4158 4.14062 23.9536 3.64844C 24.4913 3.15625 25.2 2.91016 26.0795 2.91016C 26.9545 2.91016 27.6609 3.15625 28.1987 3.64844C 28.741 4.14062 29.0122 4.80599 29.0122 5.64453ZM 27.9799 10.2861C 27.9799 9.73014 27.8022 9.27669 27.4467 8.92578C 27.0958 8.57487 26.6355 8.39941 26.0659 8.39941C 25.4962 8.39941 25.0382 8.57259 24.6918 8.91895C 24.3501 9.2653 24.1792 9.72103 24.1792 10.2861C 24.1792 10.8512 24.3455 11.2956 24.6782 11.6191C 25.0154 11.9427 25.4825 12.1045 26.0795 12.1045C 26.672 12.1045 27.1368 11.9427 27.4741 11.6191C 27.8113 11.291 27.9799 10.8467 27.9799 10.2861ZM 26.0795 3.94922C 25.5828 3.94922 25.1795 4.10417 24.8696 4.41406C 24.5642 4.7194 24.4116 5.13639 24.4116 5.66504C 24.4116 6.1709 24.562 6.58105 24.8627 6.89551C 25.1681 7.2054 25.5737 7.36035 26.0795 7.36035C 26.5854 7.36035 26.9887 7.2054 27.2895 6.89551C 27.5948 6.58105 27.7475 6.1709 27.7475 5.66504C 27.7475 5.15918 27.5903 4.74674 27.2758 4.42773C 26.9614 4.10872 26.5626 3.94922 26.0795 3.94922Z"/>
<path id="path8_fill" d="M 23.2016 13L 21.9301 13L 21.9301 4.57129L 19.3803 5.50781L 19.3803 4.35938L 23.0034 2.99902L 23.2016 2.99902L 23.2016 13ZM 33.4282 13L 26.9067 13L 26.9067 12.0908L 30.352 8.2627C 30.8624 7.68392 31.2133 7.21452 31.4047 6.85449C 31.6007 6.48991 31.6987 6.11393 31.6987 5.72656C 31.6987 5.20703 31.5415 4.78092 31.227 4.44824C 30.9126 4.11556 30.4933 3.94922 29.9692 3.94922C 29.3403 3.94922 28.8504 4.12923 28.4995 4.48926C 28.1531 4.84473 27.9799 5.34147 27.9799 5.97949L 26.7153 5.97949C 26.7153 5.06348 27.0092 4.32292 27.5971 3.75781C 28.1896 3.19271 28.9803 2.91016 29.9692 2.91016C 30.8943 2.91016 31.6258 3.15397 32.1635 3.6416C 32.7013 4.12467 32.9702 4.76953 32.9702 5.57617C 32.9702 6.55599 32.3458 7.72266 31.0971 9.07617L 28.4311 11.9678L 33.4282 11.9678L 33.4282 13Z"/>
<path id="path9_fill" d="M 27.9389 3.04004L 27.9389 4.11328L 27.7065 4.11328C 26.7221 4.13151 25.9383 4.42318 25.3549 4.98828C 24.7716 5.55339 24.4344 6.34863 24.3432 7.37402C 24.8673 6.77246 25.5828 6.47168 26.4897 6.47168C 27.3556 6.47168 28.046 6.77702 28.561 7.3877C 29.0805 7.99837 29.3403 8.78678 29.3403 9.75293C 29.3403 10.7783 29.06 11.5986 28.4995 12.2139C 27.9435 12.8291 27.1961 13.1367 26.2573 13.1367C 25.3048 13.1367 24.5323 12.7721 23.9399 12.043C 23.3474 11.3092 23.0512 10.3659 23.0512 9.21289L 23.0512 8.72754C 23.0512 6.89551 23.4409 5.49642 24.2202 4.53027C 25.004 3.55957 26.1684 3.06283 27.7133 3.04004L 27.9389 3.04004ZM 26.2778 7.52441C 25.8448 7.52441 25.4461 7.6543 25.0815 7.91406C 24.7169 8.17383 24.464 8.49967 24.3227 8.8916L 24.3227 9.35645C 24.3227 10.1768 24.5073 10.8376 24.8764 11.3389C 25.2456 11.8402 25.7058 12.0908 26.2573 12.0908C 26.8269 12.0908 27.2736 11.8812 27.5971 11.4619C 27.9252 11.0426 28.0893 10.4935 28.0893 9.81445C 28.0893 9.13086 27.923 8.57943 27.5903 8.16016C 27.2622 7.73633 26.8247 7.52441 26.2778 7.52441Z"/>
<path id="path10_fill" d="M 27.1323 13L 25.8608 13L 25.8608 4.57129L 23.311 5.50781L 23.311 4.35938L 26.934 2.99902L 27.1323 2.99902L 27.1323 13Z"/>
<path id="path11_fill" d="M 23.5571 8.00977L 24.0629 3.04688L 29.1626 3.04688L 29.1626 4.21582L 25.1362 4.21582L 24.8354 6.92969C 25.323 6.64258 25.8767 6.49902 26.4965 6.49902C 27.4034 6.49902 28.1235 6.7998 28.6567 7.40137C 29.1899 7.99837 29.4565 8.80729 29.4565 9.82812C 29.4565 10.8535 29.1785 11.6624 28.6225 12.2549C 28.0711 12.8428 27.2986 13.1367 26.3051 13.1367C 25.4256 13.1367 24.7078 12.8929 24.1518 12.4053C 23.5958 11.9176 23.2791 11.2432 23.2016 10.3818L 24.3979 10.3818C 24.4754 10.9515 24.6782 11.3822 25.0063 11.6738C 25.3344 11.9609 25.7674 12.1045 26.3051 12.1045C 26.893 12.1045 27.3533 11.904 27.686 11.5029C 28.0232 11.1019 28.1918 10.5482 28.1918 9.8418C 28.1918 9.17643 28.0096 8.64323 27.645 8.24219C 27.2849 7.83659 26.8042 7.63379 26.2026 7.63379C 25.6512 7.63379 25.2182 7.75456 24.9038 7.99609L 24.5688 8.26953L 23.5571 8.00977Z"/>
<path id="path12_fill" d="M 24.8149 7.4082L 25.7651 7.4082C 26.3621 7.39909 26.8315 7.24186 27.1733 6.93652C 27.5151 6.63118 27.686 6.21875 27.686 5.69922C 27.686 4.53255 27.1049 3.94922 25.9428 3.94922C 25.396 3.94922 24.9585 4.10645 24.6303 4.4209C 24.3068 4.73079 24.145 5.14323 24.145 5.6582L 22.8803 5.6582C 22.8803 4.86979 23.1674 4.21582 23.7417 3.69629C 24.3204 3.1722 25.0542 2.91016 25.9428 2.91016C 26.8816 2.91016 27.6176 3.15853 28.1508 3.65527C 28.684 4.15202 28.9506 4.84245 28.9506 5.72656C 28.9506 6.15951 28.8094 6.57878 28.5268 6.98438C 28.2488 7.38997 27.8683 7.69303 27.3852 7.89355C 27.9321 8.06673 28.3536 8.35384 28.6499 8.75488C 28.9506 9.15592 29.101 9.64583 29.101 10.2246C 29.101 11.1178 28.8094 11.8265 28.226 12.3506C 27.6427 12.8747 26.8839 13.1367 25.9497 13.1367C 25.0154 13.1367 24.2543 12.8838 23.6665 12.3779C 23.0831 11.8721 22.7915 11.2044 22.7915 10.375L 24.0629 10.375C 24.0629 10.8991 24.2338 11.3184 24.5756 11.6328C 24.9174 11.9473 25.3754 12.1045 25.9497 12.1045C 26.5603 12.1045 27.0275 11.945 27.351 11.626C 27.6746 11.307 27.8364 10.849 27.8364 10.252C 27.8364 9.67318 27.6586 9.22884 27.3032 8.91895C 26.9477 8.60905 26.435 8.44954 25.7651 8.44043L 24.8149 8.44043L 24.8149 7.4082Z"/>
<path id="path13_fill" d="M 29.0122 5.64453C 29.0122 6.14128 28.88 6.58333 28.6157 6.9707C 28.3559 7.35807 28.0027 7.66113 27.5561 7.87988C 28.0756 8.10319 28.4858 8.42904 28.7866 8.85742C 29.0919 9.28581 29.2446 9.77116 29.2446 10.3135C 29.2446 11.1748 28.9529 11.8607 28.3696 12.3711C 27.7908 12.8815 27.0275 13.1367 26.0795 13.1367C 25.1225 13.1367 24.3546 12.8815 23.7758 12.3711C 23.2016 11.8561 22.9145 11.1702 22.9145 10.3135C 22.9145 9.77572 23.0603 9.29036 23.352 8.85742C 23.6482 8.42448 24.0561 8.09635 24.5756 7.87305C 24.1336 7.6543 23.7849 7.35124 23.5297 6.96387C 23.2745 6.5765 23.1469 6.13672 23.1469 5.64453C 23.1469 4.80599 23.4158 4.14062 23.9536 3.64844C 24.4913 3.15625 25.2 2.91016 26.0795 2.91016C 26.9545 2.91016 27.6609 3.15625 28.1987 3.64844C 28.741 4.14062 29.0122 4.80599 29.0122 5.64453ZM 27.9799 10.2861C 27.9799 9.73014 27.8022 9.27669 27.4467 8.92578C 27.0958 8.57487 26.6355 8.39941 26.0659 8.39941C 25.4962 8.39941 25.0382 8.57259 24.6918 8.91895C 24.3501 9.2653 24.1792 9.72103 24.1792 10.2861C 24.1792 10.8512 24.3455 11.2956 24.6782 11.6191C 25.0154 11.9427 25.4825 12.1045 26.0795 12.1045C 26.672 12.1045 27.1368 11.9427 27.4741 11.6191C 27.8113 11.291 27.9799 10.8467 27.9799 10.2861ZM 26.0795 3.94922C 25.5828 3.94922 25.1795 4.10417 24.8696 4.41406C 24.5642 4.7194 24.4116 5.13639 24.4116 5.66504C 24.4116 6.1709 24.562 6.58105 24.8627 6.89551C 25.1681 7.2054 25.5737 7.36035 26.0795 7.36035C 26.5854 7.36035 26.9887 7.2054 27.2895 6.89551C 27.5948 6.58105 27.7475 6.1709 27.7475 5.66504C 27.7475 5.15918 27.5903 4.74674 27.2758 4.42773C 26.9614 4.10872 26.5626 3.94922 26.0795 3.94922Z"/>
<path id="path14_fill" d="M 29.4018 3.75781L 25.2797 13L 23.9536 13L 28.062 4.08594L 22.6752 4.08594L 22.6752 3.04688L 29.4018 3.04688L 29.4018 3.75781Z"/>
<path id="path15_fill" d="M 9.6084 7.66113L 12.3838 7.66113L 12.3838 8.85742L 9.6084 8.85742L 9.6084 12.002L 8.33691 12.002L 8.33691 8.85742L 5.56152 8.85742L 5.56152 7.66113L 8.33691 7.66113L 8.33691 4.75586L 9.6084 4.75586L 9.6084 7.66113Z"/>
<path id="path16_fill" d="M 3.81445 9.50586L 6.25195 2.46875L 7.48242 2.46875L 4.31836 11L 3.32227 11L 0.164062 2.46875L 1.38867 2.46875L 3.81445 9.50586ZM 10.834 11.1172C 9.97461 11.1172 9.27539 10.8359 8.73633 10.2734C 8.19727 9.70703 7.92773 8.95117 7.92773 8.00586L 7.92773 7.80664C 7.92773 7.17773 8.04688 6.61719 8.28516 6.125C 8.52734 5.62891 8.86328 5.24219 9.29297 4.96484C 9.72656 4.68359 10.1953 4.54297 10.6992 4.54297C 11.5234 4.54297 12.1641 4.81445 12.6211 5.35742C 13.0781 5.90039 13.3066 6.67773 13.3066 7.68945L 13.3066 8.14062L 9.01172 8.14062C 9.02734 8.76562 9.20898 9.27148 9.55664 9.6582C 9.9082 10.041 10.3535 10.2324 10.8926 10.2324C 11.2754 10.2324 11.5996 10.1543 11.8652 9.99805C 12.1309 9.8418 12.3633 9.63477 12.5625 9.37695L 13.2246 9.89258C 12.6934 10.709 11.8965 11.1172 10.834 11.1172ZM 10.6992 5.43359C 10.2617 5.43359 9.89453 5.59375 9.59766 5.91406C 9.30078 6.23047 9.11719 6.67578 9.04688 7.25L 12.2227 7.25L 12.2227 7.16797C 12.1914 6.61719 12.043 6.19141 11.7773 5.89062C 11.5117 5.58594 11.1523 5.43359 10.6992 5.43359ZM 17.1094 10.2324C 17.4961 10.2324 17.834 10.1152 18.123 9.88086C 18.4121 9.64648 18.5723 9.35352 18.6035 9.00195L 19.6289 9.00195C 19.6094 9.36523 19.4844 9.71094 19.2539 10.0391C 19.0234 10.3672 18.7148 10.6289 18.3281 10.8242C 17.9453 11.0195 17.5391 11.1172 17.1094 11.1172C 16.2461 11.1172 15.5586 10.8301 15.0469 10.2559C 14.5391 9.67773 14.2852 8.88867 14.2852 7.88867L 14.2852 7.70703C 14.2852 7.08984 14.3984 6.54102 14.625 6.06055C 14.8516 5.58008 15.1758 5.20703 15.5977 4.94141C 16.0234 4.67578 16.5254 4.54297 17.1035 4.54297C 17.8145 4.54297 18.4043 4.75586 18.873 5.18164C 19.3457 5.60742 19.5977 6.16016 19.6289 6.83984L 18.6035 6.83984C 18.5723 6.42969 18.416 6.09375 18.1348 5.83203C 17.8574 5.56641 17.5137 5.43359 17.1035 5.43359C 16.5527 5.43359 16.125 5.63281 15.8203 6.03125C 15.5195 6.42578 15.3691 6.99805 15.3691 7.74805L 15.3691 7.95312C 15.3691 8.68359 15.5195 9.24609 15.8203 9.64062C 16.1211 10.0352 16.5508 10.2324 17.1094 10.2324ZM 22.3184 3.125L 22.3184 4.66016L 23.502 4.66016L 23.502 5.49805L 22.3184 5.49805L 22.3184 9.42969C 22.3184 9.68359 22.3711 9.875 22.4766 10.0039C 22.582 10.1289 22.7617 10.1914 23.0156 10.1914C 23.1406 10.1914 23.3125 10.168 23.5312 10.1211L 23.5312 11C 23.2461 11.0781 22.9688 11.1172 22.6992 11.1172C 22.2148 11.1172 21.8496 10.9707 21.6035 10.6777C 21.3574 10.3848 21.2344 9.96875 21.2344 9.42969L 21.2344 5.49805L 20.0801 5.49805L 20.0801 4.66016L 21.2344 4.66016L 21.2344 3.125L 22.3184 3.125ZM 24.3691 7.77148C 24.3691 7.15039 24.4902 6.5918 24.7324 6.0957C 24.9785 5.59961 25.3184 5.2168 25.752 4.94727C 26.1895 4.67773 26.6875 4.54297 27.2461 4.54297C 28.1094 4.54297 28.8066 4.8418 29.3379 5.43945C 29.873 6.03711 30.1406 6.83203 30.1406 7.82422L 30.1406 7.90039C 30.1406 8.51758 30.0215 9.07227 29.7832 9.56445C 29.5488 10.0527 29.2109 10.4336 28.7695 10.707C 28.332 10.9805 27.8281 11.1172 27.2578 11.1172C 26.3984 11.1172 25.7012 10.8184 25.166 10.2207C 24.6348 9.62305 24.3691 8.83203 24.3691 7.84766L 24.3691 7.77148ZM 25.459 7.90039C 25.459 8.60352 25.6211 9.16797 25.9453 9.59375C 26.2734 10.0195 26.7109 10.2324 27.2578 10.2324C 27.8086 10.2324 28.2461 10.0176 28.5703 9.58789C 28.8945 9.1543 29.0566 8.54883 29.0566 7.77148C 29.0566 7.07617 28.8906 6.51367 28.5586 6.08398C 28.2305 5.65039 27.793 5.43359 27.2461 5.43359C 26.7109 5.43359 26.2793 5.64648 25.9512 6.07227C 25.623 6.49805 25.459 7.10742 25.459 7.90039ZM 34.5645 5.63281C 34.4004 5.60547 34.2227 5.5918 34.0312 5.5918C 33.3203 5.5918 32.8379 5.89453 32.584 6.5L 32.584 11L 31.5 11L 31.5 4.66016L 32.5547 4.66016L 32.5723 5.39258C 32.9277 4.82617 33.4316 4.54297 34.084 4.54297C 34.2949 4.54297 34.4551 4.57031 34.5645 4.625L 34.5645 5.63281ZM 36.7441 11L 35.6602 11L 35.6602 4.66016L 36.7441 4.66016L 36.7441 11ZM 35.5723 2.97852C 35.5723 2.80273 35.625 2.6543 35.7305 2.5332C 35.8398 2.41211 36 2.35156 36.2109 2.35156C 36.4219 2.35156 36.582 2.41211 36.6914 2.5332C 36.8008 2.6543 36.8555 2.80273 36.8555 2.97852C 36.8555 3.1543 36.8008 3.30078 36.6914 3.41797C 36.582 3.53516 36.4219 3.59375 36.2109 3.59375C 36 3.59375 35.8398 3.53516 35.7305 3.41797C 35.625 3.30078 35.5723 3.1543 35.5723 2.97852ZM 39.5039 10.1152L 43.2129 10.1152L 43.2129 11L 38.1797 11L 38.1797 10.2031L 41.6777 5.55664L 38.2324 5.55664L 38.2324 4.66016L 43.0371 4.66016L 43.0371 5.42773L 39.5039 10.1152ZM 46.9746 11.1172C 46.1152 11.1172 45.416 10.8359 44.877 10.2734C 44.3379 9.70703 44.0684 8.95117 44.0684 8.00586L 44.0684 7.80664C 44.0684 7.17773 44.1875 6.61719 44.4258 6.125C 44.668 5.62891 45.0039 5.24219 45.4336 4.96484C 45.8672 4.68359 46.3359 4.54297 46.8398 4.54297C 47.6641 4.54297 48.3047 4.81445 48.7617 5.35742C 49.2188 5.90039 49.4473 6.67773 49.4473 7.68945L 49.4473 8.14062L 45.1523 8.14062C 45.168 8.76562 45.3496 9.27148 45.6973 9.6582C 46.0488 10.041 46.4941 10.2324 47.0332 10.2324C 47.416 10.2324 47.7402 10.1543 48.0059 9.99805C 48.2715 9.8418 48.5039 9.63477 48.7031 9.37695L 49.3652 9.89258C 48.834 10.709 48.0371 11.1172 46.9746 11.1172ZM 46.8398 5.43359C 46.4023 5.43359 46.0352 5.59375 45.7383 5.91406C 45.4414 6.23047 45.2578 6.67578 45.1875 7.25L 48.3633 7.25L 48.3633 7.16797C 48.332 6.61719 48.1836 6.19141 47.918 5.89062C 47.6523 5.58594 47.293 5.43359 46.8398 5.43359ZM 50.4434 7.77734C 50.4434 6.80469 50.6738 6.02344 51.1348 5.43359C 51.5957 4.83984 52.1992 4.54297 52.9453 4.54297C 53.6875 4.54297 54.2754 4.79688 54.709 5.30469L 54.709 2L 55.793 2L 55.793 11L 54.7969 11L 54.7441 10.3203C 54.3105 10.8516 53.707 11.1172 52.9336 11.1172C 52.1992 11.1172 51.5996 10.8164 51.1348 10.2148C 50.6738 9.61328 50.4434 8.82812 50.4434 7.85938L 50.4434 7.77734ZM 51.5273 7.90039C 51.5273 8.61914 51.6758 9.18164 51.9727 9.58789C 52.2695 9.99414 52.6797 10.1973 53.2031 10.1973C 53.8906 10.1973 54.3926 9.88867 54.709 9.27148L 54.709 6.35938C 54.3848 5.76172 53.8867 5.46289 53.2148 5.46289C 52.6836 5.46289 52.2695 5.66797 51.9727 6.07812C 51.6758 6.48828 51.5273 7.0957 51.5273 7.90039ZM 64.3711 11C 64.3086 10.875 64.2578 10.6523 64.2188 10.332C 63.7148 10.8555 63.1133 11.1172 62.4141 11.1172C 61.7891 11.1172 61.2754 10.9414 60.873 10.5898C 60.4746 10.2344 60.2754 9.78516 60.2754 9.24219C 60.2754 8.58203 60.5254 8.07031 61.0254 7.70703C 61.5293 7.33984 62.2363 7.15625 63.1465 7.15625L 64.2012 7.15625L 64.2012 6.6582C 64.2012 6.2793 64.0879 5.97852 63.8613 5.75586C 63.6348 5.5293 63.3008 5.41602 62.8594 5.41602C 62.4727 5.41602 62.1484 5.51367 61.8867 5.70898C 61.625 5.9043 61.4941 6.14062 61.4941 6.41797L 60.4043 6.41797C 60.4043 6.10156 60.5156 5.79688 60.7383 5.50391C 60.9648 5.20703 61.2695 4.97266 61.6523 4.80078C 62.0391 4.62891 62.4629 4.54297 62.9238 4.54297C 63.6543 4.54297 64.2266 4.72656 64.6406 5.09375C 65.0547 5.45703 65.2695 5.95898 65.2852 6.59961L 65.2852 9.51758C 65.2852 10.0996 65.3594 10.5625 65.5078 10.9062L 65.5078 11L 64.3711 11ZM 62.5723 10.1738C 62.9121 10.1738 63.2344 10.0859 63.5391 9.91016C 63.8438 9.73438 64.0645 9.50586 64.2012 9.22461L 64.2012 7.92383L 63.3516 7.92383C 62.0234 7.92383 61.3594 8.3125 61.3594 9.08984C 61.3594 9.42969 61.4727 9.69531 61.6992 9.88672C 61.9258 10.0781 62.2168 10.1738 62.5723 10.1738ZM 66.7207 7.77734C 66.7207 6.80469 66.9512 6.02344 67.4121 5.43359C 67.873 4.83984 68.4766 4.54297 69.2227 4.54297C 69.9648 4.54297 70.5527 4.79688 70.9863 5.30469L 70.9863 2L 72.0703 2L 72.0703 11L 71.0742 11L 71.0215 10.3203C 70.5879 10.8516 69.9844 11.1172 69.2109 11.1172C 68.4766 11.1172 67.877 10.8164 67.4121 10.2148C 66.9512 9.61328 66.7207 8.82812 66.7207 7.85938L 66.7207 7.77734ZM 67.8047 7.90039C 67.8047 8.61914 67.9531 9.18164 68.25 9.58789C 68.5469 9.99414 68.957 10.1973 69.4805 10.1973C 70.168 10.1973 70.6699 9.88867 70.9863 9.27148L 70.9863 6.35938C 70.6621 5.76172 70.1641 5.46289 69.4922 5.46289C 68.9609 5.46289 68.5469 5.66797 68.25 6.07812C 67.9531 6.48828 67.8047 7.0957 67.8047 7.90039ZM 73.4941 7.77734C 73.4941 6.80469 73.7246 6.02344 74.1855 5.43359C 74.6465 4.83984 75.25 4.54297 75.9961 4.54297C 76.7383 4.54297 77.3262 4.79688 77.7598 5.30469L 77.7598 2L 78.8438 2L 78.8438 11L 77.8477 11L 77.7949 10.3203C 77.3613 10.8516 76.7578 11.1172 75.9844 11.1172C 75.25 11.1172 74.6504 10.8164 74.1855 10.2148C 73.7246 9.61328 73.4941 8.82812 73.4941 7.85938L 73.4941 7.77734ZM 74.5781 7.90039C 74.5781 8.61914 74.7266 9.18164 75.0234 9.58789C 75.3203 9.99414 75.7305 10.1973 76.2539 10.1973C 76.9414 10.1973 77.4434 9.88867 77.7598 9.27148L 77.7598 6.35938C 77.4355 5.76172 76.9375 5.46289 76.2656 5.46289C 75.7344 5.46289 75.3203 5.66797 75.0234 6.07812C 74.7266 6.48828 74.5781 7.0957 74.5781 7.90039ZM 81.709 11L 80.625 11L 80.625 4.66016L 81.709 4.66016L 81.709 11ZM 80.5371 2.97852C 80.5371 2.80273 80.5898 2.6543 80.6953 2.5332C 80.8047 2.41211 80.9648 2.35156 81.1758 2.35156C 81.3867 2.35156 81.5469 2.41211 81.6562 2.5332C 81.7656 2.6543 81.8203 2.80273 81.8203 2.97852C 81.8203 3.1543 81.7656 3.30078 81.6562 3.41797C 81.5469 3.53516 81.3867 3.59375 81.1758 3.59375C 80.9648 3.59375 80.8047 3.53516 80.6953 3.41797C 80.5898 3.30078 80.5371 3.1543 80.5371 2.97852ZM 84.9199 3.125L 84.9199 4.66016L 86.1035 4.66016L 86.1035 5.49805L 84.9199 5.49805L 84.9199 9.42969C 84.9199 9.68359 84.9727 9.875 85.0781 10.0039C 85.1836 10.1289 85.3633 10.1914 85.6172 10.1914C 85.7422 10.1914 85.9141 10.168 86.1328 10.1211L 86.1328 11C 85.8477 11.0781 85.5703 11.1172 85.3008 11.1172C 84.8164 11.1172 84.4512 10.9707 84.2051 10.6777C 83.959 10.3848 83.8359 9.96875 83.8359 9.42969L 83.8359 5.49805L 82.6816 5.49805L 82.6816 4.66016L 83.8359 4.66016L 83.8359 3.125L 84.9199 3.125ZM 88.5527 11L 87.4688 11L 87.4688 4.66016L 88.5527 4.66016L 88.5527 11ZM 87.3809 2.97852C 87.3809 2.80273 87.4336 2.6543 87.5391 2.5332C 87.6484 2.41211 87.8086 2.35156 88.0195 2.35156C 88.2305 2.35156 88.3906 2.41211 88.5 2.5332C 88.6094 2.6543 88.6641 2.80273 88.6641 2.97852C 88.6641 3.1543 88.6094 3.30078 88.5 3.41797C 88.3906 3.53516 88.2305 3.59375 88.0195 3.59375C 87.8086 3.59375 87.6484 3.53516 87.5391 3.41797C 87.4336 3.30078 87.3809 3.1543 87.3809 2.97852ZM 90.0059 7.77148C 90.0059 7.15039 90.127 6.5918 90.3691 6.0957C 90.6152 5.59961 90.9551 5.2168 91.3887 4.94727C 91.8262 4.67773 92.3242 4.54297 92.8828 4.54297C 93.7461 4.54297 94.4434 4.8418 94.9746 5.43945C 95.5098 6.03711 95.7773 6.83203 95.7773 7.82422L 95.7773 7.90039C 95.7773 8.51758 95.6582 9.07227 95.4199 9.56445C 95.1855 10.0527 94.8477 10.4336 94.4062 10.707C 93.9688 10.9805 93.4648 11.1172 92.8945 11.1172C 92.0352 11.1172 91.3379 10.8184 90.8027 10.2207C 90.2715 9.62305 90.0059 8.83203 90.0059 7.84766L 90.0059 7.77148ZM 91.0957 7.90039C 91.0957 8.60352 91.2578 9.16797 91.582 9.59375C 91.9102 10.0195 92.3477 10.2324 92.8945 10.2324C 93.4453 10.2324 93.8828 10.0176 94.207 9.58789C 94.5312 9.1543 94.6934 8.54883 94.6934 7.77148C 94.6934 7.07617 94.5273 6.51367 94.1953 6.08398C 93.8672 5.65039 93.4297 5.43359 92.8828 5.43359C 92.3477 5.43359 91.916 5.64648 91.5879 6.07227C 91.2598 6.49805 91.0957 7.10742 91.0957 7.90039ZM 98.1621 4.66016L 98.1973 5.45703C 98.6816 4.84766 99.3145 4.54297 100.096 4.54297C 101.436 4.54297 102.111 5.29883 102.123 6.81055L 102.123 11L 101.039 11L 101.039 6.80469C 101.035 6.34766 100.93 6.00977 100.723 5.79102C 100.52 5.57227 100.201 5.46289 99.7676 5.46289C 99.416 5.46289 99.1074 5.55664 98.8418 5.74414C 98.5762 5.93164 98.3691 6.17773 98.2207 6.48242L 98.2207 11L 97.1367 11L 97.1367 4.66016L 98.1621 4.66016Z"/>
<path id="path17_fill" d="M 6.88477 3.39453L 4.14258 3.39453L 4.14258 11L 3.02344 11L 3.02344 3.39453L 0.287109 3.39453L 0.287109 2.46875L 6.88477 2.46875L 6.88477 3.39453ZM 13.2539 9.50586L 14.4727 4.66016L 15.5566 4.66016L 13.7109 11L 12.832 11L 11.291 6.19531L 9.79102 11L 8.91211 11L 7.07227 4.66016L 8.15039 4.66016L 9.39844 9.40625L 10.875 4.66016L 11.748 4.66016L 13.2539 9.50586ZM 16.377 7.77148C 16.377 7.15039 16.498 6.5918 16.7402 6.0957C 16.9863 5.59961 17.3262 5.2168 17.7598 4.94727C 18.1973 4.67773 18.6953 4.54297 19.2539 4.54297C 20.1172 4.54297 20.8145 4.8418 21.3457 5.43945C 21.8809 6.03711 22.1484 6.83203 22.1484 7.82422L 22.1484 7.90039C 22.1484 8.51758 22.0293 9.07227 21.791 9.56445C 21.5566 10.0527 21.2188 10.4336 20.7773 10.707C 20.3398 10.9805 19.8359 11.1172 19.2656 11.1172C 18.4062 11.1172 17.709 10.8184 17.1738 10.2207C 16.6426 9.62305 16.377 8.83203 16.377 7.84766L 16.377 7.77148ZM 17.4668 7.90039C 17.4668 8.60352 17.6289 9.16797 17.9531 9.59375C 18.2812 10.0195 18.7188 10.2324 19.2656 10.2324C 19.8164 10.2324 20.2539 10.0176 20.5781 9.58789C 20.9023 9.1543 21.0645 8.54883 21.0645 7.77148C 21.0645 7.07617 20.8984 6.51367 20.5664 6.08398C 20.2383 5.65039 19.8008 5.43359 19.2539 5.43359C 18.7188 5.43359 18.2871 5.64648 17.959 6.07227C 17.6309 6.49805 17.4668 7.10742 17.4668 7.90039ZM 29.9355 11L 28.8457 11L 28.8457 3.77539L 26.6602 4.57812L 26.6602 3.59375L 29.7656 2.42773L 29.9355 2.42773L 29.9355 11ZM 33.3926 11L 33.3926 2.46875L 35.8008 2.46875C 36.543 2.46875 37.1992 2.63281 37.7695 2.96094C 38.3398 3.28906 38.7793 3.75586 39.0879 4.36133C 39.4004 4.9668 39.5586 5.66211 39.5625 6.44727L 39.5625 6.99219C 39.5625 7.79688 39.4062 8.50195 39.0938 9.10742C 38.7852 9.71289 38.3418 10.1777 37.7637 10.502C 37.1895 10.8262 36.5195 10.9922 35.7539 11L 33.3926 11ZM 34.5176 3.39453L 34.5176 10.0801L 35.7012 10.0801C 36.5684 10.0801 37.2422 9.81055 37.7227 9.27148C 38.207 8.73242 38.4492 7.96484 38.4492 6.96875L 38.4492 6.4707C 38.4492 5.50195 38.2207 4.75 37.7637 4.21484C 37.3105 3.67578 36.666 3.40234 35.8301 3.39453L 34.5176 3.39453ZM 47.9883 11C 47.9258 10.875 47.875 10.6523 47.8359 10.332C 47.332 10.8555 46.7305 11.1172 46.0312 11.1172C 45.4062 11.1172 44.8926 10.9414 44.4902 10.5898C 44.0918 10.2344 43.8926 9.78516 43.8926 9.24219C 43.8926 8.58203 44.1426 8.07031 44.6426 7.70703C 45.1465 7.33984 45.8535 7.15625 46.7637 7.15625L 47.8184 7.15625L 47.8184 6.6582C 47.8184 6.2793 47.7051 5.97852 47.4785 5.75586C 47.252 5.5293 46.918 5.41602 46.4766 5.41602C 46.0898 5.41602 45.7656 5.51367 45.5039 5.70898C 45.2422 5.9043 45.1113 6.14062 45.1113 6.41797L 44.0215 6.41797C 44.0215 6.10156 44.1328 5.79688 44.3555 5.50391C 44.582 5.20703 44.8867 4.97266 45.2695 4.80078C 45.6562 4.62891 46.0801 4.54297 46.541 4.54297C 47.2715 4.54297 47.8438 4.72656 48.2578 5.09375C 48.6719 5.45703 48.8867 5.95898 48.9023 6.59961L 48.9023 9.51758C 48.9023 10.0996 48.9766 10.5625 49.125 10.9062L 49.125 11L 47.9883 11ZM 46.1895 10.1738C 46.5293 10.1738 46.8516 10.0859 47.1562 9.91016C 47.4609 9.73438 47.6816 9.50586 47.8184 9.22461L 47.8184 7.92383L 46.9688 7.92383C 45.6406 7.92383 44.9766 8.3125 44.9766 9.08984C 44.9766 9.42969 45.0898 9.69531 45.3164 9.88672C 45.543 10.0781 45.834 10.1738 46.1895 10.1738ZM 53.666 5.63281C 53.502 5.60547 53.3242 5.5918 53.1328 5.5918C 52.4219 5.5918 51.9395 5.89453 51.6855 6.5L 51.6855 11L 50.6016 11L 50.6016 4.66016L 51.6562 4.66016L 51.6738 5.39258C 52.0293 4.82617 52.5332 4.54297 53.1855 4.54297C 53.3965 4.54297 53.5566 4.57031 53.666 4.625L 53.666 5.63281ZM 57.7324 5.63281C 57.5684 5.60547 57.3906 5.5918 57.1992 5.5918C 56.4883 5.5918 56.0059 5.89453 55.752 6.5L 55.752 11L 54.668 11L 54.668 4.66016L 55.7227 4.66016L 55.7402 5.39258C 56.0957 4.82617 56.5996 4.54297 57.252 4.54297C 57.4629 4.54297 57.623 4.57031 57.7324 4.625L 57.7324 5.63281ZM 62.4141 11C 62.3516 10.875 62.3008 10.6523 62.2617 10.332C 61.7578 10.8555 61.1562 11.1172 60.457 11.1172C 59.832 11.1172 59.3184 10.9414 58.916 10.5898C 58.5176 10.2344 58.3184 9.78516 58.3184 9.24219C 58.3184 8.58203 58.5684 8.07031 59.0684 7.70703C 59.5723 7.33984 60.2793 7.15625 61.1895 7.15625L 62.2441 7.15625L 62.2441 6.6582C 62.2441 6.2793 62.1309 5.97852 61.9043 5.75586C 61.6777 5.5293 61.3438 5.41602 60.9023 5.41602C 60.5156 5.41602 60.1914 5.51367 59.9297 5.70898C 59.668 5.9043 59.5371 6.14062 59.5371 6.41797L 58.4473 6.41797C 58.4473 6.10156 58.5586 5.79688 58.7812 5.50391C 59.0078 5.20703 59.3125 4.97266 59.6953 4.80078C 60.082 4.62891 60.5059 4.54297 60.9668 4.54297C 61.6973 4.54297 62.2695 4.72656 62.6836 5.09375C 63.0977 5.45703 63.3125 5.95898 63.3281 6.59961L 63.3281 9.51758C 63.3281 10.0996 63.4023 10.5625 63.5508 10.9062L 63.5508 11L 62.4141 11ZM 60.6152 10.1738C 60.9551 10.1738 61.2773 10.0859 61.582 9.91016C 61.8867 9.73438 62.1074 9.50586 62.2441 9.22461L 62.2441 7.92383L 61.3945 7.92383C 60.0664 7.92383 59.4023 8.3125 59.4023 9.08984C 59.4023 9.42969 59.5156 9.69531 59.7422 9.88672C 59.9688 10.0781 60.2598 10.1738 60.6152 10.1738ZM 67.0078 9.41211L 68.4844 4.66016L 69.6445 4.66016L 67.0957 11.9785C 66.7012 13.0332 66.0742 13.5605 65.2148 13.5605L 65.0098 13.543L 64.6055 13.4668L 64.6055 12.5879L 64.8984 12.6113C 65.2656 12.6113 65.5508 12.5371 65.7539 12.3887C 65.9609 12.2402 66.1309 11.9688 66.2637 11.5742L 66.5039 10.9297L 64.2422 4.66016L 65.4258 4.66016L 67.0078 9.41211ZM 74.3086 9.31836C 74.3086 9.02539 74.1973 8.79883 73.9746 8.63867C 73.7559 8.47461 73.3711 8.33398 72.8203 8.2168C 72.2734 8.09961 71.8379 7.95898 71.5137 7.79492C 71.1934 7.63086 70.9551 7.43555 70.7988 7.20898C 70.6465 6.98242 70.5703 6.71289 70.5703 6.40039C 70.5703 5.88086 70.7891 5.44141 71.2266 5.08203C 71.668 4.72266 72.2305 4.54297 72.9141 4.54297C 73.6328 4.54297 74.2148 4.72852 74.6602 5.09961C 75.1094 5.4707 75.334 5.94531 75.334 6.52344L 74.2441 6.52344C 74.2441 6.22656 74.1172 5.9707 73.8633 5.75586C 73.6133 5.54102 73.2969 5.43359 72.9141 5.43359C 72.5195 5.43359 72.2109 5.51953 71.9883 5.69141C 71.7656 5.86328 71.6543 6.08789 71.6543 6.36523C 71.6543 6.62695 71.7578 6.82422 71.9648 6.95703C 72.1719 7.08984 72.5449 7.2168 73.084 7.33789C 73.627 7.45898 74.0664 7.60352 74.4023 7.77148C 74.7383 7.93945 74.9863 8.14258 75.1465 8.38086C 75.3105 8.61523 75.3926 8.90234 75.3926 9.24219C 75.3926 9.80859 75.166 10.2637 74.7129 10.6074C 74.2598 10.9473 73.6719 11.1172 72.9492 11.1172C 72.4414 11.1172 71.9922 11.0273 71.6016 10.8477C 71.2109 10.668 70.9043 10.418 70.6816 10.0977C 70.4629 9.77344 70.3535 9.42383 70.3535 9.04883L 71.4375 9.04883C 71.457 9.41211 71.6016 9.70117 71.8711 9.91602C 72.1445 10.127 72.5039 10.2324 72.9492 10.2324C 73.3594 10.2324 73.6875 10.1504 73.9336 9.98633C 74.1836 9.81836 74.3086 9.5957 74.3086 9.31836Z"/>
<path id="path18_fill" d="M 6.29883 11L 0.708984 11L 0.708984 10.2207L 3.66211 6.93945C 4.09961 6.44336 4.40039 6.04102 4.56445 5.73242C 4.73242 5.41992 4.81641 5.09766 4.81641 4.76562C 4.81641 4.32031 4.68164 3.95508 4.41211 3.66992C 4.14258 3.38477 3.7832 3.24219 3.33398 3.24219C 2.79492 3.24219 2.375 3.39648 2.07422 3.70508C 1.77734 4.00977 1.62891 4.43555 1.62891 4.98242L 0.544922 4.98242C 0.544922 4.19727 0.796875 3.5625 1.30078 3.07812C 1.80859 2.59375 2.48633 2.35156 3.33398 2.35156C 4.12695 2.35156 4.75391 2.56055 5.21484 2.97852C 5.67578 3.39258 5.90625 3.94531 5.90625 4.63672C 5.90625 5.47656 5.37109 6.47656 4.30078 7.63672L 2.01562 10.1152L 6.29883 10.1152L 6.29883 11ZM 7.72852 11L 7.72852 2.46875L 10.1367 2.46875C 10.8789 2.46875 11.5352 2.63281 12.1055 2.96094C 12.6758 3.28906 13.1152 3.75586 13.4238 4.36133C 13.7363 4.9668 13.8945 5.66211 13.8984 6.44727L 13.8984 6.99219C 13.8984 7.79688 13.7422 8.50195 13.4297 9.10742C 13.1211 9.71289 12.6777 10.1777 12.0996 10.502C 11.5254 10.8262 10.8555 10.9922 10.0898 11L 7.72852 11ZM 8.85352 3.39453L 8.85352 10.0801L 10.0371 10.0801C 10.9043 10.0801 11.5781 9.81055 12.0586 9.27148C 12.543 8.73242 12.7852 7.96484 12.7852 6.96875L 12.7852 6.4707C 12.7852 5.50195 12.5566 4.75 12.0996 4.21484C 11.6465 3.67578 11.002 3.40234 10.166 3.39453L 8.85352 3.39453ZM 22.3242 11C 22.2617 10.875 22.2109 10.6523 22.1719 10.332C 21.668 10.8555 21.0664 11.1172 20.3672 11.1172C 19.7422 11.1172 19.2285 10.9414 18.8262 10.5898C 18.4277 10.2344 18.2285 9.78516 18.2285 9.24219C 18.2285 8.58203 18.4785 8.07031 18.9785 7.70703C 19.4824 7.33984 20.1895 7.15625 21.0996 7.15625L 22.1543 7.15625L 22.1543 6.6582C 22.1543 6.2793 22.041 5.97852 21.8145 5.75586C 21.5879 5.5293 21.2539 5.41602 20.8125 5.41602C 20.4258 5.41602 20.1016 5.51367 19.8398 5.70898C 19.5781 5.9043 19.4473 6.14062 19.4473 6.41797L 18.3574 6.41797C 18.3574 6.10156 18.4688 5.79688 18.6914 5.50391C 18.918 5.20703 19.2227 4.97266 19.6055 4.80078C 19.9922 4.62891 20.416 4.54297 20.877 4.54297C 21.6074 4.54297 22.1797 4.72656 22.5938 5.09375C 23.0078 5.45703 23.2227 5.95898 23.2383 6.59961L 23.2383 9.51758C 23.2383 10.0996 23.3125 10.5625 23.4609 10.9062L 23.4609 11L 22.3242 11ZM 20.5254 10.1738C 20.8652 10.1738 21.1875 10.0859 21.4922 9.91016C 21.7969 9.73438 22.0176 9.50586 22.1543 9.22461L 22.1543 7.92383L 21.3047 7.92383C 19.9766 7.92383 19.3125 8.3125 19.3125 9.08984C 19.3125 9.42969 19.4258 9.69531 19.6523 9.88672C 19.8789 10.0781 20.1699 10.1738 20.5254 10.1738ZM 28.002 5.63281C 27.8379 5.60547 27.6602 5.5918 27.4688 5.5918C 26.7578 5.5918 26.2754 5.89453 26.0215 6.5L 26.0215 11L 24.9375 11L 24.9375 4.66016L 25.9922 4.66016L 26.0098 5.39258C 26.3652 4.82617 26.8691 4.54297 27.5215 4.54297C 27.7324 4.54297 27.8926 4.57031 28.002 4.625L 28.002 5.63281ZM 32.0684 5.63281C 31.9043 5.60547 31.7266 5.5918 31.5352 5.5918C 30.8242 5.5918 30.3418 5.89453 30.0879 6.5L 30.0879 11L 29.0039 11L 29.0039 4.66016L 30.0586 4.66016L 30.0762 5.39258C 30.4316 4.82617 30.9355 4.54297 31.5879 4.54297C 31.7988 4.54297 31.959 4.57031 32.0684 4.625L 32.0684 5.63281ZM 36.75 11C 36.6875 10.875 36.6367 10.6523 36.5977 10.332C 36.0938 10.8555 35.4922 11.1172 34.793 11.1172C 34.168 11.1172 33.6543 10.9414 33.252 10.5898C 32.8535 10.2344 32.6543 9.78516 32.6543 9.24219C 32.6543 8.58203 32.9043 8.07031 33.4043 7.70703C 33.9082 7.33984 34.6152 7.15625 35.5254 7.15625L 36.5801 7.15625L 36.5801 6.6582C 36.5801 6.2793 36.4668 5.97852 36.2402 5.75586C 36.0137 5.5293 35.6797 5.41602 35.2383 5.41602C 34.8516 5.41602 34.5273 5.51367 34.2656 5.70898C 34.0039 5.9043 33.873 6.14062 33.873 6.41797L 32.7832 6.41797C 32.7832 6.10156 32.8945 5.79688 33.1172 5.50391C 33.3438 5.20703 33.6484 4.97266 34.0312 4.80078C 34.418 4.62891 34.8418 4.54297 35.3027 4.54297C 36.0332 4.54297 36.6055 4.72656 37.0195 5.09375C 37.4336 5.45703 37.6484 5.95898 37.6641 6.59961L 37.6641 9.51758C 37.6641 10.0996 37.7383 10.5625 37.8867 10.9062L 37.8867 11L 36.75 11ZM 34.9512 10.1738C 35.291 10.1738 35.6133 10.0859 35.918 9.91016C 36.2227 9.73438 36.4434 9.50586 36.5801 9.22461L 36.5801 7.92383L 35.7305 7.92383C 34.4023 7.92383 33.7383 8.3125 33.7383 9.08984C 33.7383 9.42969 33.8516 9.69531 34.0781 9.88672C 34.3047 10.0781 34.5957 10.1738 34.9512 10.1738ZM 41.3438 9.41211L 42.8203 4.66016L 43.9805 4.66016L 41.4316 11.9785C 41.0371 13.0332 40.4102 13.5605 39.5508 13.5605L 39.3457 13.543L 38.9414 13.4668L 38.9414 12.5879L 39.2344 12.6113C 39.6016 12.6113 39.8867 12.5371 40.0898 12.3887C 40.2969 12.2402 40.4668 11.9688 40.5996 11.5742L 40.8398 10.9297L 38.5781 4.66016L 39.7617 4.66016L 41.3438 9.41211Z"/>
<path id="path19_stroke" d="M 36.7071 0.707107C 37.0976 0.316582 37.0976 -0.316582 36.7071 -0.707107L 30.3431 -7.07107C 29.9526 -7.46159 29.3195 -7.46159 28.9289 -7.07107C 28.5384 -6.68054 28.5384 -6.04738 28.9289 -5.65685L 34.5858 0L 28.9289 5.65685C 28.5384 6.04738 28.5384 6.68054 28.9289 7.07107C 29.3195 7.46159 29.9526 7.46159 30.3431 7.07107L 36.7071 0.707107ZM 0 1L 36 1L 36 -1L 0 -1L 0 1Z"/>
</defs>
</svg>
